<svg width="60" height="34" viewBox="0 0 60 34" fill="none" xmlns="http://www.w3.org/2000/svg">
<g clip-path="url(#clip0)">
<path d="M14.3116 31.6558V31.4353H15.2456V31.6558L14.9545 31.7044V32.5779H16.2154V31.7044L15.9242 31.6558V31.4353H16.8583V31.6558L16.5671 31.7044V33.6961L16.8583 33.7447V33.9635H15.9242V33.7447L16.2154 33.6961V32.847H14.9545V33.6961L15.2456 33.7447V33.9635H14.3116V33.7447L14.6027 33.6961V31.7044L14.3116 31.6558Z" fill="#999591"/>
<path d="M18.4155 33.9635C18.4048 33.9126 18.3965 33.8669 18.3905 33.8264C18.3845 33.7859 18.3804 33.7453 18.378 33.7048C18.3102 33.7893 18.225 33.8599 18.1226 33.9167C18.0214 33.9722 17.9131 34 17.7976 34C17.5964 34 17.4434 33.9525 17.3386 33.8576C17.2338 33.7615 17.1815 33.6267 17.1815 33.453C17.1815 33.2747 17.2553 33.1376 17.4029 33.0415C17.5518 32.9443 17.7553 32.8956 18.0137 32.8956H18.3762V32.6769C18.3762 32.5669 18.3405 32.48 18.2691 32.4164C18.1976 32.3516 18.0982 32.3191 17.9708 32.3191C17.8827 32.3191 17.8048 32.3301 17.7369 32.3521C17.6702 32.3741 17.616 32.4042 17.5744 32.4424L17.5368 32.6404H17.2654V32.2757C17.3535 32.2074 17.4601 32.153 17.5851 32.1125C17.7101 32.0708 17.8458 32.05 17.9922 32.05C18.2113 32.05 18.3887 32.1044 18.5245 32.2132C18.6602 32.322 18.7281 32.4777 18.7281 32.6803V33.585C18.7281 33.6093 18.7281 33.633 18.7281 33.6562C18.7292 33.6793 18.731 33.7025 18.7334 33.7257L18.8763 33.7448V33.9635H18.4155ZM17.8494 33.7135C17.9661 33.7135 18.0726 33.6863 18.1691 33.6319C18.2655 33.5775 18.3345 33.5121 18.3762 33.4356V33.1266H18.0012C17.8571 33.1266 17.7428 33.159 17.6583 33.2238C17.575 33.2886 17.5333 33.3674 17.5333 33.46C17.5333 33.5422 17.5595 33.6053 17.6118 33.6493C17.6642 33.6921 17.7434 33.7135 17.8494 33.7135Z" fill="#999591"/>
<path d="M19.1692 33.7447L19.4603 33.6961V32.3538L19.1692 32.3052V32.0847H19.8121V33.6961L20.1032 33.7447V33.9635H19.1692V33.7447ZM19.8121 31.6037H19.4603V31.2547H19.8121V31.6037Z" fill="#999591"/>
<path d="M20.3729 32.3052V32.0847H20.9783L21.0122 32.3573C21.067 32.2612 21.1343 32.186 21.214 32.1316C21.2949 32.0772 21.3873 32.05 21.4908 32.05C21.5182 32.05 21.5462 32.0523 21.5748 32.0569C21.6045 32.0604 21.6271 32.0644 21.6426 32.0691L21.5962 32.3868L21.3962 32.3764C21.3033 32.3764 21.2253 32.3978 21.1622 32.4407C21.0991 32.4823 21.0503 32.5414 21.0158 32.6178V33.6961L21.3069 33.7448V33.9635H20.3729V33.7448L20.664 33.6961V32.3539L20.3729 32.3052Z" fill="#999591"/>
<path d="M22.7195 33.7326C22.8362 33.7326 22.9385 33.6979 23.0267 33.6284C23.116 33.5578 23.1606 33.4716 23.1606 33.3697H23.4767L23.4803 33.3801C23.4862 33.5422 23.4118 33.6863 23.2571 33.8125C23.1035 33.9375 22.9243 34 22.7195 34C22.4385 34 22.2236 33.9109 22.0748 33.7326C21.9272 33.5543 21.8533 33.3303 21.8533 33.0606V32.9877C21.8533 32.7202 21.9278 32.4974 22.0766 32.3191C22.2254 32.1397 22.4397 32.05 22.7195 32.05C22.8743 32.05 23.013 32.0749 23.1356 32.1247C23.2594 32.1744 23.3618 32.2427 23.4428 32.3295L23.4589 32.7463H23.1785L23.1017 32.4511C23.06 32.4117 23.0064 32.3799 22.9409 32.3556C22.8755 32.3313 22.8016 32.3191 22.7195 32.3191C22.5349 32.3191 22.4028 32.3839 22.323 32.5136C22.2445 32.6421 22.2052 32.8001 22.2052 32.9877V33.0606C22.2052 33.2528 22.2445 33.4131 22.323 33.5416C22.4016 33.6689 22.5338 33.7326 22.7195 33.7326Z" fill="#999591"/>
<path d="M25.2055 33.6857C25.1447 33.7864 25.0662 33.864 24.9697 33.9184C24.8745 33.9728 24.7643 34 24.6393 34C24.4298 34 24.2661 33.9346 24.1482 33.8038C24.0303 33.673 23.9714 33.4692 23.9714 33.1925V32.3538L23.7499 32.3052V32.0847H24.3232V33.196C24.3232 33.3963 24.3536 33.5341 24.4143 33.6093C24.475 33.6846 24.5697 33.7222 24.6982 33.7222C24.8233 33.7222 24.9262 33.6979 25.0072 33.6492C25.0894 33.5995 25.1513 33.5294 25.1929 33.4391V32.3538L24.934 32.3052V32.0847H25.5448V33.6961L25.7662 33.7447V33.9635H25.2287L25.2055 33.6857Z" fill="#999591"/>
<path d="M26.6592 31.6315V32.0847H27.0253V32.3382H26.6592V33.4791C26.6592 33.5671 26.6776 33.629 26.7145 33.6649C26.7526 33.7008 26.8026 33.7187 26.8646 33.7187C26.8955 33.7187 26.93 33.7164 26.9681 33.7118C27.0074 33.706 27.0402 33.7002 27.0663 33.6944L27.1146 33.9288C27.0812 33.9496 27.0324 33.9664 26.9681 33.9792C26.9038 33.9931 26.8396 34 26.7753 34C26.6324 34 26.5187 33.9584 26.4342 33.875C26.3496 33.7905 26.3073 33.6585 26.3073 33.4791V32.3382H26.002V32.0847H26.3073V31.6315H26.6592Z" fill="#999591"/>
<path d="M28.863 32.6751H28.5986L28.5415 32.4494C28.4986 32.41 28.4445 32.3788 28.379 32.3556C28.3147 32.3313 28.2415 32.3191 28.1593 32.3191C28.0343 32.3191 27.9414 32.3457 27.8807 32.399C27.82 32.4522 27.7896 32.5165 27.7896 32.5917C27.7896 32.6658 27.8164 32.7243 27.87 32.7671C27.9236 32.81 28.0325 32.8482 28.1968 32.8817C28.4409 32.9327 28.6224 33.0022 28.7415 33.0901C28.8606 33.177 28.9201 33.2939 28.9201 33.4409C28.9201 33.6076 28.8504 33.7425 28.7112 33.8455C28.573 33.9485 28.3921 34 28.1683 34C28.0218 34 27.8903 33.9838 27.7736 33.9514C27.6569 33.9178 27.5527 33.8698 27.461 33.8073L27.4593 33.3784H27.7236L27.7896 33.6301C27.8301 33.666 27.8849 33.6921 27.9539 33.7083C28.0242 33.7245 28.0956 33.7326 28.1683 33.7326C28.2933 33.7326 28.3909 33.7083 28.4611 33.6597C28.5326 33.6099 28.5683 33.545 28.5683 33.4652C28.5683 33.3899 28.5385 33.328 28.479 33.2794C28.4206 33.2308 28.3093 33.1885 28.145 33.1526C27.9105 33.1028 27.7337 33.0351 27.6146 32.9495C27.4956 32.8638 27.436 32.748 27.436 32.6022C27.436 32.4494 27.5027 32.3191 27.636 32.2115C27.7706 32.1038 27.945 32.05 28.1593 32.05C28.3057 32.05 28.4373 32.0685 28.554 32.1055C28.6707 32.1426 28.7677 32.1941 28.8451 32.2601L28.863 32.6751Z" fill="#999591"/>
<path d="M30.1328 33.2828C30.1328 33.1416 30.1744 33.0183 30.2578 32.913C30.3423 32.8065 30.4679 32.7 30.6346 32.5935C30.5417 32.4789 30.4727 32.377 30.4274 32.2878C30.3821 32.1976 30.3595 32.105 30.3595 32.01C30.3595 31.8144 30.4173 31.6639 30.5328 31.5585C30.6495 31.452 30.8096 31.3988 31.0132 31.3988C31.2013 31.3988 31.3543 31.4515 31.4721 31.5568C31.59 31.6622 31.6489 31.7889 31.6489 31.9371C31.6489 32.0506 31.6174 32.1489 31.5543 32.2323C31.4924 32.3145 31.4001 32.399 31.2775 32.4858L31.0828 32.6247L31.69 33.335C31.7388 33.2597 31.7769 33.1763 31.8043 33.0849C31.8317 32.9934 31.8454 32.8968 31.8454 32.7949H32.1597C32.1597 32.9465 32.1365 33.0872 32.0901 33.2168C32.0436 33.3465 31.9764 33.4628 31.8883 33.5659L32.2186 33.9549L32.2151 33.9635H31.8061L31.6543 33.7864C31.5591 33.8559 31.4537 33.9091 31.3382 33.9462C31.2227 33.9821 31.1031 34 30.9792 34C30.7209 34 30.5149 33.9334 30.3613 33.8003C30.2089 33.6672 30.1328 33.4947 30.1328 33.2828ZM30.9792 33.7326C31.065 33.7326 31.1495 33.7187 31.2328 33.6909C31.3162 33.6619 31.3948 33.6208 31.4686 33.5676L30.8239 32.8122L30.7524 32.8626C30.6441 32.9414 30.5721 33.0166 30.5364 33.0884C30.5018 33.1602 30.4845 33.225 30.4845 33.2828C30.4845 33.4137 30.5268 33.5213 30.6114 33.6058C30.6959 33.6903 30.8185 33.7326 30.9792 33.7326ZM30.7114 32.0065C30.7114 32.0679 30.7274 32.1322 30.7596 32.1993C30.7917 32.2653 30.8399 32.3376 30.9042 32.4164L31.1507 32.2514C31.2185 32.2074 31.2644 32.16 31.2882 32.109C31.3132 32.0569 31.3257 31.9996 31.3257 31.9371C31.3257 31.8665 31.2965 31.804 31.2382 31.7496C31.1811 31.6951 31.1061 31.6679 31.0132 31.6679C30.9168 31.6679 30.8423 31.7009 30.7899 31.7669C30.7375 31.8317 30.7114 31.9116 30.7114 32.0065Z" fill="#999591"/>
<path d="M35.2243 32.1819H34.9582L34.8921 31.8208C34.8385 31.7768 34.7671 31.7403 34.6778 31.7114C34.5885 31.6824 34.4849 31.6679 34.3671 31.6679C34.1801 31.6679 34.0367 31.7067 33.9367 31.7843C33.8367 31.8607 33.7867 31.9608 33.7867 32.0847C33.7867 32.1947 33.8372 32.2867 33.9385 32.3608C34.0408 32.4337 34.2058 32.498 34.4331 32.5535C34.707 32.6195 34.9148 32.7167 35.0564 32.8453C35.1993 32.9737 35.2707 33.1329 35.2707 33.3228C35.2707 33.5265 35.185 33.6903 35.0135 33.8142C34.8433 33.9381 34.6201 34 34.3438 34C34.1438 34 33.9658 33.9682 33.8099 33.9045C33.6551 33.8408 33.5289 33.7575 33.4313 33.6544V33.1839H33.6956L33.7634 33.5468C33.8313 33.6012 33.9123 33.6458 34.0063 33.6805C34.1004 33.7152 34.2129 33.7326 34.3438 33.7326C34.5212 33.7326 34.6611 33.6961 34.7635 33.6232C34.8671 33.5503 34.9189 33.4513 34.9189 33.3262C34.9189 33.2105 34.8742 33.1138 34.785 33.0363C34.6957 32.9576 34.5379 32.8916 34.3117 32.8383C34.0367 32.7746 33.8218 32.6809 33.667 32.557C33.5122 32.4331 33.4348 32.2774 33.4348 32.0899C33.4348 31.8919 33.5211 31.7276 33.6938 31.5967C33.8664 31.4648 34.0908 31.3988 34.3671 31.3988C34.5492 31.3988 34.7147 31.4295 34.8635 31.4908C35.0135 31.551 35.1338 31.6245 35.2243 31.7114V32.1819Z" fill="#999591"/>
<path d="M35.5547 33.7447L35.8458 33.6961V31.5238L35.5547 31.4752V31.2547H36.1976V32.3348C36.2643 32.2444 36.3459 32.1744 36.4423 32.1246C36.5387 32.0749 36.6459 32.05 36.7637 32.05C36.9709 32.05 37.1316 32.1101 37.2459 32.2306C37.3602 32.351 37.4174 32.5362 37.4174 32.7862V33.6961L37.7085 33.7447V33.9635H36.7745V33.7447L37.0656 33.6961V32.7828C37.0656 32.6276 37.031 32.513 36.962 32.4389C36.8941 32.3649 36.7923 32.3278 36.6566 32.3278C36.5602 32.3278 36.472 32.3504 36.3923 32.3955C36.3137 32.4395 36.2488 32.4997 36.1976 32.5761V33.6961L36.4887 33.7447V33.9635H35.5547V33.7447Z" fill="#999591"/>
<path d="M39.2246 33.9635C39.2139 33.9126 39.2056 33.8669 39.1996 33.8264C39.1937 33.7859 39.1895 33.7453 39.1871 33.7048C39.1193 33.7893 39.0342 33.8599 38.9318 33.9167C38.8306 33.9722 38.7222 34 38.6067 34C38.4055 34 38.2525 33.9525 38.1478 33.8576C38.043 33.7615 37.9906 33.6267 37.9906 33.453C37.9906 33.2747 38.0644 33.1376 38.212 33.0415C38.3609 32.9443 38.5645 32.8956 38.8228 32.8956H39.1853V32.6769C39.1853 32.5669 39.1496 32.48 39.0782 32.4164C39.0068 32.3516 38.9073 32.3191 38.7799 32.3191C38.6919 32.3191 38.6139 32.3301 38.546 32.3521C38.4793 32.3741 38.4252 32.4042 38.3835 32.4424L38.346 32.6404H38.0745V32.2757C38.1626 32.2074 38.2692 32.153 38.3942 32.1125C38.5192 32.0708 38.6549 32.05 38.8014 32.05C39.0205 32.05 39.1979 32.1044 39.3336 32.2132C39.4693 32.322 39.5372 32.4777 39.5372 32.6803V33.585C39.5372 33.6093 39.5372 33.633 39.5372 33.6562C39.5384 33.6793 39.5402 33.7025 39.5425 33.7257L39.6854 33.7448V33.9635H39.2246ZM38.6585 33.7135C38.7752 33.7135 38.8818 33.6863 38.9782 33.6319C39.0746 33.5775 39.1437 33.5121 39.1853 33.4356V33.1266H38.8103C38.6663 33.1266 38.5519 33.159 38.4674 33.2238C38.3841 33.2886 38.3424 33.3674 38.3424 33.46C38.3424 33.5422 38.3686 33.6053 38.421 33.6493C38.4734 33.6921 38.5526 33.7135 38.6585 33.7135Z" fill="#999591"/>
<path d="M40.6123 32.3052L40.3801 32.3399L40.7783 33.4096L40.8105 33.545H40.8212L40.8552 33.4096L41.2409 32.3399L41.007 32.3052V32.0847H41.7535V32.3052L41.5945 32.3313L40.9463 33.9635H40.6801L40.0247 32.3313L39.8658 32.3052V32.0847H40.6123V32.3052Z" fill="#999591"/>
<path d="M42.85 34C42.5809 34 42.3666 33.9132 42.2071 33.7395C42.0487 33.5647 41.9695 33.3384 41.9695 33.0606V32.9842C41.9695 32.7168 42.0511 32.4945 42.2142 32.3174C42.3785 32.1391 42.5725 32.05 42.7964 32.05C43.0559 32.05 43.2524 32.1264 43.3857 32.2792C43.5204 32.432 43.5874 32.6358 43.5874 32.8904V33.104H42.3338L42.3285 33.1127C42.3321 33.2933 42.3791 33.442 42.4696 33.5589C42.5601 33.6747 42.6868 33.7326 42.85 33.7326C42.969 33.7326 43.0732 33.7164 43.1625 33.684C43.253 33.6504 43.331 33.6047 43.3965 33.5468L43.5339 33.7691C43.4649 33.8339 43.3732 33.8889 43.2589 33.934C43.1458 33.978 43.0095 34 42.85 34ZM42.7964 32.3191C42.6785 32.3191 42.5779 32.3678 42.4946 32.465C42.4112 32.5611 42.3601 32.682 42.341 32.8279L42.3446 32.8366H43.2357V32.7914C43.2357 32.6571 43.1988 32.5449 43.125 32.4546C43.0512 32.3643 42.9416 32.3191 42.7964 32.3191Z" fill="#999591"/>
<path d="M45.4144 32.6751H45.15L45.0931 32.4494C45.05 32.41 44.9961 32.3788 44.9305 32.3556C44.8661 32.3313 44.7931 32.3191 44.7109 32.3191C44.5861 32.3191 44.4931 32.3457 44.4322 32.399C44.3718 32.4522 44.3413 32.5165 44.3413 32.5917C44.3413 32.6658 44.3679 32.7243 44.4218 32.7671C44.4753 32.81 44.5839 32.8482 44.7483 32.8817C44.9926 32.9327 45.174 33.0022 45.2931 33.0901C45.4122 33.177 45.4718 33.2939 45.4718 33.4409C45.4718 33.6076 45.4022 33.7425 45.2626 33.8455C45.1248 33.9485 44.9435 34 44.72 34C44.5735 34 44.4418 33.9838 44.3253 33.9514C44.2083 33.9178 44.1044 33.8698 44.0126 33.8073L44.0109 33.3784H44.2753L44.3413 33.6301C44.3818 33.666 44.4366 33.6921 44.5057 33.7083C44.5757 33.7245 44.6474 33.7326 44.72 33.7326C44.8448 33.7326 44.9426 33.7083 45.0126 33.6597C45.0844 33.6099 45.12 33.545 45.12 33.4652C45.12 33.3899 45.09 33.328 45.0305 33.2794C44.9722 33.2308 44.8609 33.1885 44.6966 33.1526C44.4622 33.1028 44.2853 33.0351 44.1661 32.9495C44.047 32.8638 43.9874 32.748 43.9874 32.6022C43.9874 32.4494 44.0544 32.3191 44.1879 32.2115C44.3222 32.1038 44.4966 32.05 44.7109 32.05C44.8574 32.05 44.9887 32.0685 45.1057 32.1055C45.2222 32.1426 45.3192 32.1941 45.3966 32.2601L45.4144 32.6751Z" fill="#999591"/>
<path d="M21.623 2.30948L21.8159 2.28344L22.7249 0H23.0267L23.9196 2.28344L24.1107 2.30948V2.52827H23.3642V2.30948L23.5607 2.27649L23.3892 1.81112H22.348L22.1712 2.27649L22.3677 2.30948V2.52827H21.623V2.30948ZM22.457 1.52461H23.2821L22.8785 0.439322H22.8677L22.457 1.52461Z" fill="#999591"/>
<path d="M24.8268 0.869965L24.6054 0.908168L24.8572 1.84412L24.8983 2.07159H24.909L24.959 1.84412L25.3448 0.649437H25.6269L26.0145 1.84412L26.0698 2.09764H26.0805L26.1323 1.84412L26.3698 0.908168L26.1448 0.869965V0.649437H26.8806V0.869965L26.7128 0.894275L26.2252 2.52828H25.9412L25.5662 1.38396L25.4858 1.06792L25.4751 1.06966L25.4001 1.38396L25.0322 2.52828H24.7483L24.2607 0.894275L24.0911 0.869965V0.649437H24.8268V0.869965Z" fill="#999591"/>
<path d="M28.0486 2.56474C27.7795 2.56474 27.5652 2.47791 27.4057 2.30427C27.2473 2.12947 27.1682 1.90315 27.1682 1.62532V1.54891C27.1682 1.2815 27.2497 1.05923 27.4128 0.882115C27.5771 0.70384 27.7712 0.6147 27.995 0.6147C28.2545 0.6147 28.451 0.691107 28.5843 0.843911C28.7189 0.99672 28.7862 1.20047 28.7862 1.45515V1.66873H27.5325L27.5271 1.67741C27.5307 1.858 27.5777 2.00676 27.6682 2.12368C27.7587 2.23944 27.8855 2.29732 28.0486 2.29732C28.1676 2.29732 28.2718 2.28112 28.3611 2.2487C28.4516 2.21513 28.5296 2.16941 28.5951 2.11152L28.7326 2.33379C28.6635 2.39862 28.5718 2.4536 28.4575 2.49875C28.3445 2.54274 28.2081 2.56474 28.0486 2.56474ZM27.995 0.883853C27.8772 0.883853 27.7765 0.932473 27.6932 1.02971C27.6098 1.1258 27.5587 1.24677 27.5396 1.39263L27.5432 1.40132H28.4343V1.35617C28.4343 1.22188 28.3974 1.10959 28.3236 1.0193C28.2498 0.929001 28.1402 0.883853 27.995 0.883853Z" fill="#999591"/>
<path d="M30.6131 1.23982H30.3488L30.2916 1.01409C30.2488 0.974726 30.1946 0.943472 30.1291 0.920318C30.0648 0.896008 29.9916 0.883853 29.9094 0.883853C29.7844 0.883853 29.6916 0.910479 29.6309 0.963727C29.5701 1.01698 29.5398 1.08123 29.5398 1.15647C29.5398 1.23056 29.5665 1.28902 29.6201 1.33186C29.6737 1.37469 29.7826 1.41289 29.9469 1.44646C30.191 1.4974 30.3726 1.56686 30.4916 1.65484C30.6107 1.74166 30.6702 1.85858 30.6702 2.0056C30.6702 2.1723 30.6006 2.30717 30.4613 2.41019C30.3232 2.51322 30.1422 2.56474 29.9184 2.56474C29.7719 2.56474 29.6404 2.54853 29.5237 2.51612C29.407 2.48255 29.3028 2.4345 29.2112 2.37199L29.2094 1.94309H29.4737L29.5398 2.19487C29.5802 2.23076 29.635 2.25681 29.7041 2.27301C29.7743 2.28922 29.8457 2.29732 29.9184 2.29732C30.0434 2.29732 30.141 2.27301 30.2112 2.22439C30.2827 2.17462 30.3184 2.10979 30.3184 2.02991C30.3184 1.95467 30.2886 1.89273 30.2291 1.84411C30.1708 1.79549 30.0595 1.75324 29.8952 1.71735C29.6606 1.66757 29.4838 1.59985 29.3647 1.51418C29.2457 1.42852 29.1862 1.31275 29.1862 1.16689C29.1862 1.01409 29.2528 0.883853 29.3862 0.776192C29.5207 0.668531 29.6951 0.6147 29.9094 0.6147C30.0559 0.6147 30.1874 0.633222 30.3041 0.670269C30.4208 0.707312 30.5178 0.758826 30.5952 0.824812L30.6131 1.23982Z" fill="#999591"/>
<path d="M31.0006 1.57149C31.0006 1.29365 31.078 1.06502 31.2328 0.885587C31.3876 0.704996 31.5977 0.6147 31.8632 0.6147C32.1299 0.6147 32.3407 0.704418 32.4954 0.883853C32.6514 1.06328 32.7294 1.29249 32.7294 1.57149V1.60969C32.7294 1.88984 32.652 2.11905 32.4972 2.29732C32.3424 2.4756 32.1323 2.56474 31.8668 2.56474C31.5989 2.56474 31.3876 2.4756 31.2328 2.29732C31.078 2.11789 31.0006 1.88868 31.0006 1.60969V1.57149ZM31.3524 1.60969C31.3524 1.8088 31.3953 1.97319 31.481 2.10284C31.568 2.2325 31.6965 2.29732 31.8668 2.29732C32.0335 2.29732 32.1603 2.2325 32.2472 2.10284C32.3341 1.97319 32.3775 1.8088 32.3775 1.60969V1.57149C32.3775 1.37469 32.3341 1.21088 32.2472 1.08007C32.1603 0.949256 32.0323 0.883853 31.8632 0.883853C31.6941 0.883853 31.5667 0.949256 31.481 1.08007C31.3953 1.21088 31.3524 1.37469 31.3524 1.57149V1.60969Z" fill="#999591"/>
<path d="M32.983 2.30948L33.2741 2.26086V0.91858L32.983 0.869959V0.649431H33.5902L33.6134 0.89427C33.6753 0.805134 33.7551 0.736255 33.8527 0.68763C33.9503 0.63901 34.0634 0.6147 34.192 0.6147C34.3206 0.6147 34.4307 0.643643 34.5224 0.701524C34.6153 0.759404 34.6849 0.846228 34.7314 0.961993C34.7921 0.855488 34.8724 0.770981 34.9724 0.708468C35.0724 0.645959 35.1891 0.6147 35.3225 0.6147C35.5201 0.6147 35.6761 0.680686 35.7904 0.812657C35.9047 0.943472 35.9618 1.14085 35.9618 1.40479V2.26086L36.2529 2.30948V2.52827H35.3171V2.30948L35.6082 2.26086V1.40132C35.6082 1.21609 35.5755 1.08528 35.51 1.00888C35.4445 0.931313 35.3475 0.892536 35.2189 0.892536C35.0963 0.892536 34.9974 0.934789 34.9224 1.0193C34.8486 1.10264 34.8058 1.20799 34.7938 1.33533V2.26086L35.085 2.30948V2.52827H34.1509V2.30948L34.4421 2.26086V1.40132C34.4421 1.22535 34.4081 1.09685 34.3402 1.01582C34.2736 0.933629 34.1765 0.892536 34.0491 0.892536C33.942 0.892536 33.8539 0.913951 33.7848 0.956783C33.7158 0.999614 33.6628 1.05981 33.6259 1.13737V2.26086L33.917 2.30948V2.52827H32.983V2.30948Z" fill="#999591"/>
<path d="M37.3744 2.56474C37.1054 2.56474 36.8911 2.47791 36.7315 2.30427C36.5732 2.12947 36.494 1.90315 36.494 1.62532V1.54891C36.494 1.2815 36.5756 1.05923 36.7387 0.882115C36.903 0.70384 37.0971 0.6147 37.3209 0.6147C37.5804 0.6147 37.7769 0.691107 37.9102 0.843911C38.0447 0.99672 38.112 1.20047 38.112 1.45515V1.66873H36.8584L36.853 1.67741C36.8565 1.858 36.9036 2.00676 36.9941 2.12368C37.0845 2.23944 37.2114 2.29732 37.3744 2.29732C37.4935 2.29732 37.5977 2.28112 37.687 2.2487C37.7775 2.21513 37.8554 2.16941 37.9209 2.11152L38.0584 2.33379C37.9894 2.39862 37.8977 2.4536 37.7834 2.49875C37.6703 2.54274 37.534 2.56474 37.3744 2.56474ZM37.3209 0.883853C37.203 0.883853 37.1024 0.932473 37.0191 1.02971C36.9357 1.1258 36.8845 1.24677 36.8655 1.39263L36.8691 1.40132H37.7602V1.35617C37.7602 1.22188 37.7233 1.10959 37.6495 1.0193C37.5757 0.929001 37.4661 0.883853 37.3209 0.883853Z" fill="#999591"/>
<path d="M59.8261 26.914H0V27.4221H59.8261V26.914Z" fill="#FF9000"/>
<path d="M59.8261 6.59256H0V7.10059H59.8261V6.59256Z" fill="#FF9000"/>
<path d="M13.8567 16.4424V20.0129C13.8567 20.3163 13.7933 20.6056 13.6665 20.8806C13.5495 21.1461 13.3886 21.3784 13.1837 21.5776C12.9789 21.7768 12.7351 21.9332 12.4522 22.0471C12.1791 22.1703 11.8865 22.232 11.5744 22.232C11.2623 22.232 10.9697 22.1751 10.6966 22.0612C10.4235 21.9475 10.1846 21.7957 9.97977 21.6061C9.77494 21.4069 9.60912 21.1793 9.48233 20.9233C9.36529 20.6577 9.3019 20.3732 9.29216 20.0698V17.4381C9.2629 17.1442 9.12633 16.9308 8.88251 16.798C9.01903 16.7316 9.15559 16.6984 9.29216 16.6984V13.3413C9.3019 13.0379 9.36529 12.7534 9.48233 12.4878C9.60912 12.2223 9.77494 11.9947 9.97977 11.805C10.1846 11.6059 10.4235 11.4494 10.6966 11.3356C10.9697 11.2218 11.2623 11.1649 11.5744 11.1649C11.8865 11.1649 12.1791 11.2265 12.4522 11.3498C12.7351 11.4636 12.9789 11.6201 13.1837 11.8193C13.3886 12.0184 13.5495 12.2555 13.6665 12.5305C13.7933 12.796 13.8567 13.0853 13.8567 13.3982C13.8567 13.5595 13.8713 13.678 13.9006 13.7539C13.9396 13.8297 13.9786 13.8913 14.0176 13.9388C14.0566 13.9862 14.0908 14.0289 14.12 14.0668C14.159 14.1047 14.1786 14.1664 14.1786 14.2517H13.4178C13.2617 14.2327 13.1837 14.1522 13.1837 14.0099C13.1837 14.1522 13.1057 14.2327 12.9496 14.2517H12.1742C12.1742 14.1664 12.1889 14.1047 12.2181 14.0668C12.2572 14.0289 12.2962 13.9862 12.3352 13.9388C12.3742 13.8913 12.4083 13.8297 12.4376 13.7539C12.4766 13.678 12.4961 13.5547 12.4961 13.384V13.3698C12.4961 13.2465 12.4912 13.0995 12.4815 12.9288C12.4717 12.7486 12.4376 12.5779 12.3791 12.4167C12.3206 12.2555 12.2279 12.118 12.1011 12.0042C11.9743 11.8904 11.7987 11.8335 11.5744 11.8335C11.3403 11.8335 11.1599 11.8951 11.0331 12.0184C10.9161 12.1322 10.8283 12.2697 10.7698 12.4309C10.7112 12.5922 10.6771 12.7628 10.6674 12.943C10.6576 13.1232 10.6527 13.2749 10.6527 13.3982V16.6984C10.7893 16.6984 10.9258 16.7316 11.0624 16.798C10.8186 16.9308 10.682 17.1442 10.6527 17.4381V20.0129C10.6527 20.1361 10.6576 20.2879 10.6674 20.468C10.6771 20.6388 10.7112 20.8095 10.7698 20.9802C10.8283 21.1414 10.9161 21.2789 11.0331 21.3927C11.1599 21.5065 11.3403 21.5634 11.5744 21.5634C11.8085 21.5634 11.9841 21.5065 12.1011 21.3927C12.2279 21.2789 12.3206 21.1414 12.3791 20.9802C12.4376 20.8095 12.4717 20.6388 12.4815 20.468C12.4912 20.2879 12.4961 20.1361 12.4961 20.0129V17.0967C12.3888 17.1062 12.2962 17.1489 12.2181 17.2247C12.1499 17.3006 12.1157 17.3907 12.1157 17.495V17.5092C12.106 17.6515 12.0669 17.7748 11.9987 17.8791C11.9402 17.9739 11.8524 18.0593 11.7353 18.1351C11.6183 18.2015 11.4476 18.2347 11.2233 18.2347V16.4424H13.8567ZM10.0822 16.0299C10.0822 15.9729 10.0773 15.916 10.0675 15.8591C10.0675 15.8023 10.0675 15.7501 10.0675 15.7027V15.3755C10.0578 15.1669 10.0529 14.9677 10.0529 14.7781C10.0529 14.5884 10.048 14.4082 10.0383 14.2375C10.0285 14.1522 10.0236 14.0763 10.0236 14.0099C10.0236 13.9341 10.0188 13.8581 10.009 13.7823C10.009 13.7159 10.0041 13.6543 9.99438 13.5974C9.99438 13.531 9.99438 13.4741 9.99438 13.4267C9.99438 13.3793 9.98951 13.3366 9.97977 13.2986C9.97977 13.2607 9.97977 13.2275 9.97977 13.1991V13.128C9.96999 13.128 9.96512 13.1327 9.96512 13.1422V13.1991C9.96512 13.2275 9.96025 13.2607 9.95051 13.2986C9.95051 13.3366 9.95051 13.3793 9.95051 13.4267C9.95051 13.4741 9.94559 13.531 9.93585 13.5974C9.93585 13.6543 9.93585 13.7159 9.93585 13.7823C9.92612 13.8581 9.92125 13.9341 9.92125 14.0099C9.92125 14.0763 9.91633 14.1522 9.90659 14.2375C9.89686 14.4082 9.89199 14.5884 9.89199 14.7781C9.89199 14.9677 9.88707 15.1669 9.87733 15.3755V15.7027C9.87733 15.7501 9.87246 15.8023 9.86272 15.8591C9.86272 15.916 9.86272 15.9729 9.86272 16.0299V17.3528C9.86272 17.3812 9.86272 17.4097 9.86272 17.4381C9.87246 17.4666 9.87733 17.4903 9.87733 17.5092V17.9929C9.87733 18.0972 9.87733 18.2015 9.87733 18.3059C9.88707 18.4007 9.89199 18.4955 9.89199 18.5904C9.89199 18.6947 9.89199 18.7943 9.89199 18.8891C9.90172 18.9744 9.90659 19.055 9.90659 19.1309C9.91633 19.2163 9.92125 19.2969 9.92125 19.3727C9.92125 19.4486 9.92612 19.5197 9.93585 19.5861C9.93585 19.662 9.93585 19.7284 9.93585 19.7852C9.94559 19.8422 9.95051 19.8943 9.95051 19.9417C9.95051 19.9892 9.95051 20.0318 9.95051 20.0698C9.96025 20.1077 9.96512 20.1409 9.96512 20.1693V20.2405C9.96512 20.2499 9.96999 20.2547 9.97977 20.2547V20.1693C9.97977 20.1409 9.97977 20.1077 9.97977 20.0698C9.98951 20.0318 9.99438 19.9892 9.99438 19.9417C9.99438 19.8943 9.99438 19.8422 9.99438 19.7852C10.0041 19.7284 10.009 19.662 10.009 19.5861C10.0188 19.5197 10.0236 19.4486 10.0236 19.3727C10.0236 19.2969 10.0285 19.2163 10.0383 19.1309C10.0383 19.055 10.0383 18.9744 10.0383 18.8891C10.048 18.7943 10.0529 18.6947 10.0529 18.5904C10.0529 18.4955 10.0529 18.4007 10.0529 18.3059C10.0626 18.2015 10.0675 18.0972 10.0675 17.9929V17.68C10.0675 17.6041 10.0724 17.5472 10.0822 17.5092V16.0299ZM13.2715 18.0925C13.2617 17.9976 13.2569 17.9123 13.2569 17.8364C13.2569 17.7511 13.252 17.6705 13.2422 17.5946C13.2325 17.4524 13.2179 17.3338 13.1983 17.239C13.1983 17.22 13.1935 17.201 13.1837 17.1821C13.1837 17.1631 13.1837 17.1489 13.1837 17.1394V17.0967L13.1691 17.111V17.1394C13.1691 17.1489 13.1642 17.1631 13.1545 17.1821C13.1545 17.201 13.1545 17.22 13.1545 17.239C13.1349 17.3338 13.1203 17.4524 13.1106 17.5946C13.1008 17.6705 13.0959 17.7511 13.0959 17.8364C13.0959 17.9123 13.0911 17.9976 13.0813 18.0925V18.2347C13.0813 18.2632 13.0764 18.2916 13.0667 18.3201C13.0667 18.3391 13.0667 18.358 13.0667 18.377V18.9744C13.0667 19.0029 13.0716 19.0266 13.0813 19.0456V19.2589C13.0813 19.3064 13.0813 19.349 13.0813 19.387C13.0911 19.4249 13.0959 19.4676 13.0959 19.515C13.0959 19.5624 13.0959 19.6051 13.0959 19.643C13.1057 19.6809 13.1106 19.7189 13.1106 19.7568C13.1203 19.7948 13.1252 19.8327 13.1252 19.8706C13.1252 19.8991 13.1301 19.9275 13.1398 19.956C13.1398 19.9844 13.1398 20.0129 13.1398 20.0413C13.1496 20.0698 13.1545 20.0935 13.1545 20.1124C13.1545 20.1314 13.1545 20.1504 13.1545 20.1693C13.1642 20.1883 13.1691 20.2025 13.1691 20.212V20.2405C13.1691 20.2499 13.1739 20.2547 13.1837 20.2547V20.212C13.1837 20.2025 13.1837 20.1883 13.1837 20.1693C13.1935 20.1504 13.1983 20.1314 13.1983 20.1124C13.1983 20.0935 13.1983 20.0698 13.1983 20.0413C13.2081 20.0129 13.213 19.9844 13.213 19.956C13.2227 19.9275 13.2276 19.8991 13.2276 19.8706C13.2276 19.8327 13.2325 19.7948 13.2422 19.7568C13.2422 19.7189 13.2422 19.6809 13.2422 19.643C13.252 19.6051 13.2569 19.5624 13.2569 19.515C13.2569 19.4676 13.2569 19.4249 13.2569 19.387C13.2666 19.349 13.2715 19.3064 13.2715 19.2589V19.1167C13.2715 19.0788 13.2764 19.055 13.2861 19.0456V18.377C13.2861 18.358 13.2812 18.3391 13.2715 18.3201C13.2715 18.2916 13.2715 18.2632 13.2715 18.2347V18.0925Z" fill="#F4EDE8"/>
<path d="M19.1714 16.7127C19.3373 16.7127 19.4738 16.7458 19.5811 16.8122C19.4738 16.8786 19.3811 16.9687 19.3031 17.0825C19.2348 17.1963 19.191 17.3196 19.1714 17.4524V19.6003C19.1617 19.9038 19.0934 20.1883 18.9666 20.4538C18.8496 20.7099 18.6887 20.9375 18.4838 21.1366C18.279 21.3263 18.04 21.478 17.767 21.5918C17.4939 21.7056 17.2013 21.7625 16.8892 21.7625C16.5771 21.7625 16.2845 21.7056 16.0114 21.5918C15.7383 21.478 15.4994 21.3263 15.2945 21.1366C15.0897 20.9375 14.9239 20.7099 14.7971 20.4538C14.68 20.1883 14.6167 19.9038 14.6069 19.6003V17.4524C14.5777 17.1584 14.4411 16.945 14.1973 16.8122C14.3046 16.7458 14.4411 16.7127 14.6069 16.7127V13.9672C14.6167 13.6732 14.68 13.3935 14.7971 13.1279C14.9239 12.8624 15.0897 12.6348 15.2945 12.4451C15.4994 12.246 15.7383 12.0895 16.0114 11.9757C16.2845 11.8619 16.5771 11.805 16.8892 11.805C17.2013 11.805 17.4939 11.8619 17.767 11.9757C18.04 12.0895 18.279 12.246 18.4838 12.4451C18.6887 12.6348 18.8496 12.8624 18.9666 13.1279C19.0934 13.3935 19.1617 13.6732 19.1714 13.9672V16.7127ZM15.3969 16.2005C15.3969 16.1531 15.392 16.1105 15.3823 16.0725C15.3823 16.0251 15.3823 15.9777 15.3823 15.9303V15.66C15.3725 15.4798 15.3677 15.3091 15.3677 15.1479C15.3677 14.9867 15.3628 14.835 15.353 14.6927C15.3433 14.6263 15.3384 14.5599 15.3384 14.4936C15.3384 14.4272 15.3335 14.3655 15.3238 14.3086C15.3238 14.2517 15.3189 14.1995 15.3091 14.1522C15.3091 14.1047 15.3091 14.0621 15.3091 14.0241C15.3091 13.9767 15.3043 13.9388 15.2945 13.9103C15.2945 13.8724 15.2945 13.8439 15.2945 13.8249V13.7538C15.2847 13.7538 15.2799 13.7586 15.2799 13.7681V13.8249C15.2799 13.8439 15.275 13.8724 15.2653 13.9103C15.2653 13.9388 15.2653 13.9767 15.2653 14.0241C15.2653 14.0621 15.2604 14.1047 15.2506 14.1522C15.2506 14.1995 15.2506 14.2517 15.2506 14.3086C15.2409 14.3655 15.236 14.4272 15.236 14.4936C15.236 14.5599 15.2311 14.6263 15.2214 14.6927C15.2116 14.835 15.2067 14.9867 15.2067 15.1479C15.2067 15.3091 15.2019 15.4798 15.1921 15.66V15.9303C15.1921 15.9777 15.1872 16.0251 15.1775 16.0725C15.1775 16.1105 15.1775 16.1531 15.1775 16.2005V17.3243C15.1775 17.3907 15.1824 17.4381 15.1921 17.4666V17.8791C15.1921 17.9644 15.1921 18.0498 15.1921 18.1351C15.2019 18.2205 15.2067 18.3011 15.2067 18.377C15.2067 18.4623 15.2067 18.5429 15.2067 18.6188C15.2165 18.6852 15.2214 18.7563 15.2214 18.8322C15.2311 18.908 15.236 18.9792 15.236 19.0456C15.236 19.1024 15.2409 19.1593 15.2506 19.2162C15.2506 19.2731 15.2506 19.3253 15.2506 19.3727C15.2604 19.4202 15.2653 19.4675 15.2653 19.515C15.2653 19.5624 15.2653 19.6051 15.2653 19.643C15.275 19.6715 15.2799 19.6952 15.2799 19.7141V19.7568C15.2799 19.7663 15.2847 19.771 15.2945 19.771V19.7141C15.2945 19.6952 15.2945 19.6715 15.2945 19.643C15.3043 19.6051 15.3091 19.5624 15.3091 19.515C15.3091 19.4675 15.3091 19.4202 15.3091 19.3727C15.3189 19.3253 15.3238 19.2731 15.3238 19.2162C15.3335 19.1593 15.3384 19.1024 15.3384 19.0456C15.3384 18.9792 15.3433 18.908 15.353 18.8322C15.353 18.7563 15.353 18.6852 15.353 18.6188C15.3628 18.5429 15.3677 18.4623 15.3677 18.377C15.3677 18.3011 15.3677 18.2205 15.3677 18.1351C15.3774 18.0498 15.3823 17.9644 15.3823 17.8791V17.4666C15.392 17.4381 15.3969 17.3907 15.3969 17.3243V16.2005ZM17.8109 14.0241C17.8109 13.9009 17.806 13.7491 17.7962 13.5689C17.7865 13.3887 17.7524 13.218 17.6938 13.0568C17.6353 12.8956 17.5427 12.7581 17.4159 12.6443C17.2988 12.521 17.1233 12.4594 16.8892 12.4594C16.6551 12.4594 16.4747 12.521 16.3479 12.6443C16.2308 12.7581 16.143 12.8956 16.0845 13.0568C16.026 13.218 15.9919 13.3887 15.9821 13.5689C15.9724 13.7491 15.9675 13.9009 15.9675 14.0241V16.7127C16.1333 16.7127 16.2698 16.7458 16.3771 16.8122C16.1333 16.945 15.9967 17.1584 15.9675 17.4524V19.5434C15.9675 19.6667 15.9724 19.8184 15.9821 19.9986C15.9919 20.1693 16.026 20.34 16.0845 20.5107C16.143 20.672 16.2308 20.8094 16.3479 20.9233C16.4747 21.0371 16.6551 21.0939 16.8892 21.0939C17.1233 21.0939 17.2988 21.0371 17.4159 20.9233C17.5427 20.8094 17.6353 20.672 17.6938 20.5107C17.7524 20.34 17.7865 20.1693 17.7962 19.9986C17.806 19.8184 17.8109 19.6667 17.8109 19.5434V17.4524C17.7914 17.1678 17.6548 16.9545 17.4012 16.8122C17.5085 16.7458 17.645 16.7127 17.8109 16.7127V14.0241ZM18.6009 16.2005C18.6009 16.1531 18.6009 16.1105 18.6009 16.0725C18.6009 16.0251 18.596 15.9777 18.5863 15.9303V15.66C18.5863 15.4798 18.5814 15.3091 18.5716 15.1479C18.5716 14.9867 18.5667 14.835 18.557 14.6927C18.5472 14.6263 18.5424 14.5599 18.5424 14.4936C18.5424 14.4272 18.5375 14.3655 18.5277 14.3086C18.5277 14.2517 18.5229 14.1995 18.5131 14.1522C18.5131 14.1047 18.5131 14.0621 18.5131 14.0241C18.5131 13.9767 18.5082 13.9388 18.4985 13.9103C18.4985 13.8724 18.4985 13.8439 18.4985 13.8249V13.7538C18.4887 13.7538 18.4838 13.7586 18.4838 13.7681V13.8249C18.4838 13.8439 18.4838 13.8724 18.4838 13.9103C18.4838 13.9388 18.479 13.9767 18.4692 14.0241C18.4692 14.0621 18.4644 14.1047 18.4546 14.1522C18.4546 14.1995 18.4546 14.2517 18.4546 14.3086C18.4448 14.3655 18.44 14.4272 18.44 14.4936C18.44 14.5599 18.4351 14.6263 18.4253 14.6927C18.4156 14.835 18.4107 14.9867 18.4107 15.1479C18.4107 15.3091 18.4058 15.4798 18.396 15.66V16.2005C18.3863 16.2954 18.3814 16.3902 18.3814 16.4851C18.3814 16.5799 18.3814 16.6747 18.3814 16.7696C18.3814 16.8644 18.3814 16.9592 18.3814 17.0541C18.3814 17.1394 18.3863 17.2295 18.396 17.3243V17.8791C18.396 17.9644 18.396 18.0498 18.396 18.1351C18.4058 18.2205 18.4107 18.3011 18.4107 18.377C18.4107 18.4623 18.4107 18.5429 18.4107 18.6188C18.4204 18.6852 18.4253 18.7563 18.4253 18.8322C18.4351 18.908 18.44 18.9792 18.44 19.0456C18.44 19.1024 18.4448 19.1593 18.4546 19.2162C18.4546 19.2731 18.4546 19.3253 18.4546 19.3727C18.4644 19.4202 18.4692 19.4675 18.4692 19.515C18.479 19.5624 18.4838 19.6051 18.4838 19.643C18.4838 19.6715 18.4838 19.6952 18.4838 19.7141V19.7568C18.4838 19.7663 18.4887 19.771 18.4985 19.771V19.7141C18.4985 19.6952 18.4985 19.6715 18.4985 19.643C18.5082 19.6051 18.5131 19.5624 18.5131 19.515C18.5131 19.4675 18.5131 19.4202 18.5131 19.3727C18.5229 19.3253 18.5277 19.2731 18.5277 19.2162C18.5375 19.1593 18.5424 19.1024 18.5424 19.0456C18.5424 18.9792 18.5472 18.908 18.557 18.8322C18.557 18.7563 18.557 18.6852 18.557 18.6188C18.5667 18.5429 18.5716 18.4623 18.5716 18.377C18.5716 18.3011 18.5716 18.2205 18.5716 18.1351C18.5814 18.0498 18.5863 17.9644 18.5863 17.8791V17.6088C18.5863 17.5899 18.5863 17.5661 18.5863 17.5377C18.596 17.5092 18.6009 17.4856 18.6009 17.4666V16.2005Z" fill="#F4EDE8"/>
<path d="M24.6005 14.8776C24.6005 15.3044 24.4933 15.6885 24.2787 16.0299C24.0641 16.3713 23.7764 16.6368 23.4155 16.8264C23.5911 16.9592 23.752 17.1157 23.8983 17.2959C24.0446 17.4666 24.1665 17.6562 24.264 17.8649C24.3713 18.0735 24.4542 18.2869 24.5127 18.505C24.5713 18.7231 24.6005 18.9365 24.6005 19.1452V20.0555C24.5908 20.359 24.5274 20.6435 24.4103 20.909C24.2933 21.1651 24.1324 21.3927 23.9276 21.5918C23.7227 21.7815 23.4838 21.9332 23.2107 22.0471C22.9376 22.1703 22.645 22.232 22.3329 22.232H20.9577C20.8894 22.232 20.8309 22.2083 20.7821 22.1608C20.7431 22.1134 20.7236 22.0565 20.7236 21.9901C20.7236 22.0565 20.6992 22.1134 20.6504 22.1608C20.6017 22.2083 20.548 22.232 20.4895 22.232H19.7141C19.7141 22.1466 19.7287 22.085 19.758 22.0471C19.797 22.0091 19.836 21.9664 19.875 21.919C19.9141 21.8811 19.9482 21.8242 19.9775 21.7483C20.0165 21.6725 20.036 21.5539 20.036 21.3927V17.4239C20.0067 17.1394 19.8702 16.9308 19.6263 16.798C19.7531 16.7221 19.8897 16.6842 20.036 16.6842V12.0042C20.036 11.843 20.0165 11.7244 19.9775 11.6485C19.9482 11.5727 19.9141 11.5158 19.875 11.4779C19.836 11.4304 19.797 11.3878 19.758 11.3498C19.7287 11.3119 19.7141 11.2503 19.7141 11.1649H20.4895C20.548 11.1649 20.6017 11.1886 20.6504 11.236C20.6992 11.2739 20.7236 11.3261 20.7236 11.3925C20.7236 11.2408 20.8016 11.1649 20.9577 11.1649H22.3329C22.645 11.1649 22.9376 11.2218 23.2107 11.3356C23.4838 11.4494 23.7227 11.6059 23.9276 11.805C24.1324 11.9947 24.2933 12.2223 24.4103 12.4878C24.5274 12.7534 24.5908 13.0331 24.6005 13.3271V14.8776ZM20.826 15.9303C20.826 15.8639 20.8211 15.8023 20.8114 15.7454C20.8114 15.679 20.8114 15.6173 20.8114 15.5604V15.1906C20.8016 14.944 20.7967 14.7117 20.7967 14.4936C20.7967 14.2755 20.7919 14.0715 20.7821 13.8819C20.7723 13.7776 20.7675 13.6827 20.7675 13.5974C20.7675 13.512 20.7626 13.4314 20.7529 13.3555C20.7529 13.2797 20.748 13.2086 20.7382 13.1422C20.7382 13.0663 20.7382 13.0047 20.7382 12.9572C20.7382 12.9004 20.7333 12.8482 20.7236 12.8008C20.7236 12.7534 20.7236 12.7154 20.7236 12.687V12.6016C20.7138 12.6111 20.709 12.6206 20.709 12.6301V12.687C20.709 12.7154 20.7041 12.7534 20.6943 12.8008C20.6943 12.8482 20.6943 12.9004 20.6943 12.9572C20.6943 13.0047 20.6895 13.0663 20.6797 13.1422C20.6797 13.2086 20.6797 13.2797 20.6797 13.3555C20.67 13.4314 20.6651 13.512 20.6651 13.5974C20.6651 13.6827 20.6602 13.7776 20.6504 13.8819C20.6407 14.0715 20.6358 14.2755 20.6358 14.4936C20.6358 14.7117 20.631 14.944 20.6212 15.1906V15.5604C20.6212 15.6173 20.6212 15.679 20.6212 15.7454C20.6212 15.8023 20.6163 15.8639 20.6066 15.9303V17.4524C20.6066 17.4903 20.6066 17.5235 20.6066 17.5519C20.6163 17.5804 20.6212 17.6136 20.6212 17.6515V18.192C20.6212 18.3153 20.6212 18.4386 20.6212 18.5619C20.631 18.6757 20.6358 18.7847 20.6358 18.8891C20.6358 18.9934 20.6358 19.0977 20.6358 19.202C20.6456 19.3064 20.6504 19.4106 20.6504 19.515C20.6602 19.5624 20.6651 19.6098 20.6651 19.6572C20.6651 19.6952 20.6651 19.7379 20.6651 19.7852C20.6651 19.8327 20.6651 19.8753 20.6651 19.9133C20.6748 19.9512 20.6797 19.9892 20.6797 20.0271C20.6797 20.103 20.6797 20.1788 20.6797 20.2547C20.6895 20.3211 20.6943 20.3827 20.6943 20.4396C20.6943 20.4965 20.6943 20.5487 20.6943 20.5961C20.7041 20.634 20.709 20.6672 20.709 20.6957V20.7668C20.709 20.7763 20.7138 20.7857 20.7236 20.7953V20.6957C20.7236 20.6672 20.7236 20.634 20.7236 20.5961C20.7333 20.5487 20.7382 20.4965 20.7382 20.4396C20.7382 20.3827 20.7382 20.3211 20.7382 20.2547C20.748 20.1788 20.7529 20.103 20.7529 20.0271C20.7626 19.9892 20.7675 19.9512 20.7675 19.9133C20.7675 19.8753 20.7675 19.8327 20.7675 19.7852C20.7675 19.7379 20.7675 19.6952 20.7675 19.6572C20.7772 19.6098 20.7821 19.5624 20.7821 19.515C20.7821 19.4106 20.7821 19.3064 20.7821 19.202C20.7919 19.0977 20.7967 18.9934 20.7967 18.8891C20.7967 18.7847 20.7967 18.6757 20.7967 18.5619C20.8065 18.4386 20.8114 18.3153 20.8114 18.192V17.8364C20.8114 17.7511 20.8163 17.6894 20.826 17.6515V15.9303ZM23.8398 19.771C23.83 19.7995 23.8251 19.8469 23.8251 19.9133V20.1693C23.8251 20.2167 23.8203 20.2594 23.8105 20.2974C23.8105 20.3353 23.8105 20.3732 23.8105 20.4111C23.8105 20.4491 23.8056 20.4823 23.7959 20.5107C23.7959 20.5392 23.7959 20.5676 23.7959 20.5961V20.6388C23.7861 20.6482 23.7813 20.6625 23.7813 20.6814V20.7525C23.7715 20.7621 23.7666 20.7715 23.7666 20.781V20.8095C23.7666 20.8189 23.7617 20.8284 23.752 20.8379C23.752 20.8379 23.752 20.8426 23.752 20.8521C23.752 20.8616 23.7471 20.8711 23.7373 20.8806H23.752C23.752 20.8806 23.7569 20.8711 23.7666 20.8521C23.7666 20.8521 23.7715 20.8426 23.7813 20.8237C23.791 20.8142 23.7959 20.8047 23.7959 20.7953C23.8056 20.7857 23.8105 20.7763 23.8105 20.7668C23.8203 20.7573 23.8251 20.7478 23.8251 20.7383C23.8349 20.7289 23.8398 20.7146 23.8398 20.6957C23.8593 20.6767 23.869 20.653 23.869 20.6245C23.8885 20.5866 23.908 20.5202 23.9276 20.4254C23.947 20.3685 23.9568 20.3306 23.9568 20.3116C23.9666 20.2926 23.9714 20.2737 23.9714 20.2547C23.9714 20.2262 23.9763 20.2025 23.9861 20.1836C23.9861 20.1646 23.9861 20.1456 23.9861 20.1266C23.9958 20.0982 24.0007 20.0745 24.0007 20.0555C24.0105 20.0271 24.0153 19.9844 24.0153 19.9275C24.0251 19.8801 24.03 19.8327 24.03 19.7852C24.03 19.7379 24.0348 19.6904 24.0446 19.643V19.0456C24.0446 18.9981 24.0397 18.9507 24.03 18.9033C24.03 18.8559 24.0251 18.8085 24.0153 18.7611C24.0153 18.7042 24.0105 18.6615 24.0007 18.633C24.0007 18.6141 23.9958 18.5951 23.9861 18.5761C23.9861 18.5477 23.9861 18.524 23.9861 18.505C23.9763 18.4861 23.9714 18.4671 23.9714 18.4481C23.9714 18.4197 23.9666 18.396 23.9568 18.377C23.9568 18.358 23.952 18.3391 23.9422 18.3201C23.9422 18.3011 23.9422 18.2821 23.9422 18.2632C23.9227 18.2063 23.9129 18.1731 23.9129 18.1636C23.9032 18.1351 23.8885 18.1019 23.869 18.064C23.869 18.0356 23.8593 18.0119 23.8398 17.9929C23.8398 17.9645 23.83 17.9407 23.8105 17.9218C23.791 17.8838 23.7764 17.8554 23.7666 17.8364C23.7569 17.8269 23.752 17.8174 23.752 17.808H23.7373C23.7373 17.808 23.7423 17.8175 23.752 17.8364C23.752 17.8459 23.752 17.8554 23.752 17.8649C23.7617 17.8649 23.7666 17.8696 23.7666 17.8791C23.7666 17.8981 23.7715 17.917 23.7813 17.936V18.0071C23.791 18.0261 23.7959 18.0498 23.7959 18.0783C23.7959 18.1257 23.8008 18.1589 23.8105 18.1778V18.2774C23.8203 18.3153 23.8251 18.3533 23.8251 18.3912C23.8251 18.4292 23.8251 18.4718 23.8251 18.5193V18.6473C23.8251 18.6662 23.8251 18.6899 23.8251 18.7184C23.8349 18.7374 23.8398 18.7563 23.8398 18.7753V19.771ZM23.24 19.1452C23.24 19.0219 23.2351 18.8464 23.2253 18.6188C23.2156 18.3912 23.1814 18.1636 23.1229 17.936C23.0644 17.7084 22.9717 17.514 22.845 17.3528C22.7279 17.1821 22.5523 17.0967 22.3183 17.0967H21.7916C21.6843 17.0967 21.5916 17.1346 21.5136 17.2105C21.4356 17.2864 21.3966 17.3765 21.3966 17.4808V21.1793C21.3966 21.2836 21.4356 21.3737 21.5136 21.4496C21.5916 21.516 21.6843 21.5539 21.7916 21.5634H22.3183C22.5523 21.5634 22.7279 21.5065 22.845 21.3927C22.9717 21.2694 23.0644 21.1271 23.1229 20.9659C23.1814 20.8047 23.2156 20.634 23.2253 20.4539C23.2351 20.2737 23.24 20.1219 23.24 19.9986V19.1452ZM23.24 13.384C23.24 13.2607 23.2351 13.1137 23.2253 12.943C23.2156 12.7628 23.1814 12.5922 23.1229 12.4309C23.0644 12.2697 22.9717 12.1322 22.845 12.0184C22.7279 11.8951 22.5523 11.8335 22.3183 11.8335H21.7916C21.6843 11.8335 21.5916 11.8714 21.5136 11.9473C21.4356 12.0231 21.3966 12.1132 21.3966 12.2176V16.0441C21.3966 16.1484 21.4356 16.2385 21.5136 16.3144C21.5916 16.3902 21.6843 16.4282 21.7916 16.4282H22.3183C22.5523 16.4282 22.7279 16.3713 22.845 16.2574C22.9717 16.1437 23.0644 16.0061 23.1229 15.8449C23.1814 15.6742 23.2156 15.5035 23.2253 15.3328C23.2351 15.1527 23.24 15.0009 23.24 14.8776V13.384ZM23.8983 15.2617C23.9178 15.2048 23.9276 15.1669 23.9276 15.1479C23.947 15.11 23.9568 15.072 23.9568 15.0341C23.9666 15.0151 23.9714 14.9962 23.9714 14.9772C23.9714 14.9487 23.9763 14.925 23.9861 14.9061C23.9861 14.8871 23.9861 14.8682 23.9861 14.8492C23.9958 14.8207 24.0007 14.7923 24.0007 14.7638C24.0105 14.7354 24.0153 14.688 24.0153 14.6216C24.0251 14.5741 24.03 14.5268 24.03 14.4793C24.03 14.4319 24.0348 14.3845 24.0446 14.3371V14.0241C24.0446 13.9198 24.0446 13.8202 24.0446 13.7254C24.0446 13.6211 24.0397 13.5215 24.03 13.4267C24.0202 13.3982 24.0153 13.3745 24.0153 13.3555C24.0153 13.3271 24.0105 13.3034 24.0007 13.2844C24.0007 13.2181 23.9958 13.1706 23.9861 13.1422C23.9763 13.0948 23.9666 13.0521 23.9568 13.0141C23.9568 12.9762 23.952 12.9383 23.9422 12.9004C23.9227 12.8435 23.9129 12.8055 23.9129 12.7866C23.8934 12.7486 23.8836 12.7202 23.8836 12.7012C23.8642 12.6633 23.8495 12.6348 23.8398 12.6158C23.8398 12.5874 23.83 12.5637 23.8105 12.5447C23.8008 12.5163 23.7861 12.4831 23.7666 12.4452L23.7373 12.4167V12.4309C23.7373 12.4404 23.7373 12.4452 23.7373 12.4452C23.7471 12.4452 23.752 12.4499 23.752 12.4594C23.7617 12.4689 23.7666 12.4831 23.7666 12.5021C23.7666 12.521 23.7715 12.54 23.7813 12.559V12.6301C23.791 12.649 23.7959 12.6775 23.7959 12.7154C23.7959 12.7344 23.7959 12.7534 23.7959 12.7723C23.8056 12.7818 23.8105 12.796 23.8105 12.815V12.9146C23.8203 12.9525 23.8251 12.9904 23.8251 13.0284C23.8251 13.0663 23.8251 13.109 23.8251 13.1564V13.2986C23.8251 13.3176 23.8251 13.3413 23.8251 13.3698C23.8349 13.3887 23.8398 13.4077 23.8398 13.4267V14.4793C23.83 14.5078 23.8251 14.5552 23.8251 14.6216V14.8918C23.8251 14.9393 23.8203 14.9819 23.8105 15.0199C23.8105 15.0578 23.8105 15.0957 23.8105 15.1337C23.8105 15.1716 23.8056 15.2096 23.7959 15.2475C23.7959 15.2759 23.7959 15.3044 23.7959 15.3328C23.7959 15.3802 23.791 15.4087 23.7813 15.4182V15.5035C23.7715 15.5035 23.7666 15.513 23.7666 15.532V15.5604C23.7666 15.5699 23.7617 15.5794 23.752 15.5889C23.752 15.5889 23.752 15.5936 23.752 15.6031C23.752 15.6126 23.7471 15.6221 23.7373 15.6315L23.7666 15.6031C23.7666 15.5936 23.7666 15.5889 23.7666 15.5889C23.7764 15.5794 23.7813 15.5699 23.7813 15.5604C23.791 15.5604 23.7959 15.5509 23.7959 15.532C23.8056 15.532 23.8105 15.5225 23.8105 15.5035C23.8203 15.5035 23.8251 15.4941 23.8251 15.4751C23.8349 15.4656 23.8398 15.4514 23.8398 15.4324C23.8593 15.4134 23.869 15.3897 23.869 15.3613C23.8885 15.3044 23.8983 15.2712 23.8983 15.2617Z" fill="#F4EDE8"/>
<path d="M30.1342 20.909C30.1732 21.0703 30.2171 21.1888 30.2659 21.2647C30.3146 21.3405 30.3634 21.4021 30.4122 21.4496C30.4609 21.497 30.5048 21.5397 30.5438 21.5776C30.5829 21.6155 30.6121 21.6772 30.6316 21.7625H29.8562C29.7879 21.7625 29.7246 21.7388 29.666 21.6914C29.6173 21.644 29.588 21.5871 29.5783 21.5207C29.588 21.5871 29.5734 21.644 29.5344 21.6914C29.4953 21.7388 29.4466 21.7625 29.3881 21.7625H28.6127C28.5932 21.6772 28.598 21.6155 28.6273 21.5776C28.6566 21.5397 28.6858 21.5017 28.7151 21.4638C28.7443 21.4164 28.7687 21.3548 28.7883 21.2789C28.8077 21.1935 28.8029 21.0655 28.7736 20.8948V20.8806L28.4517 19.2731C28.4323 19.1783 28.3786 19.0977 28.2908 19.0313C28.203 18.9555 28.1055 18.9175 27.9982 18.9175H26.9887C26.8815 18.9175 26.784 18.9555 26.6962 19.0313C26.6084 19.0977 26.5547 19.1783 26.5352 19.2731L26.228 20.8806V20.8948C26.1987 21.0655 26.189 21.1935 26.1987 21.2789C26.2183 21.3548 26.2426 21.4164 26.2719 21.4638C26.3109 21.5017 26.3402 21.5397 26.3596 21.5776C26.3889 21.6155 26.3987 21.6772 26.3889 21.7625H25.6136C25.5453 21.7625 25.4916 21.7388 25.4526 21.6914C25.4136 21.644 25.399 21.5871 25.4087 21.5207C25.399 21.5871 25.3697 21.644 25.321 21.6914C25.2722 21.7388 25.2136 21.7625 25.1454 21.7625H24.37C24.3797 21.6772 24.4041 21.6155 24.4431 21.5776C24.4822 21.5397 24.526 21.497 24.5748 21.4496C24.6236 21.4021 24.6723 21.3405 24.7211 21.2647C24.7699 21.1888 24.8138 21.0703 24.8528 20.909L25.5111 17.4524C25.5306 17.3196 25.516 17.1963 25.4673 17.0825C25.4185 16.9687 25.3404 16.8786 25.2332 16.8122C25.3892 16.7458 25.5306 16.7127 25.6574 16.7127L26.4474 12.6585C26.4767 12.4973 26.4816 12.3788 26.4621 12.3029C26.4426 12.2176 26.4182 12.1559 26.3889 12.118C26.3596 12.0705 26.3304 12.0279 26.3011 11.9899C26.2719 11.952 26.267 11.8903 26.2865 11.805H27.2667C27.413 11.824 27.4862 11.9046 27.4862 12.0468C27.4862 11.9804 27.5057 11.9283 27.5447 11.8903C27.5935 11.843 27.6471 11.8145 27.7056 11.805H28.7005C28.7199 11.8903 28.7151 11.952 28.6858 11.9899C28.6663 12.0279 28.6419 12.0705 28.6127 12.118C28.5834 12.1559 28.559 12.2176 28.5395 12.3029C28.52 12.3788 28.5249 12.4973 28.5542 12.6585L29.3296 16.7127C29.4076 16.7127 29.4807 16.7221 29.549 16.7411C29.6173 16.7601 29.6856 16.7838 29.7538 16.8122C29.5393 16.945 29.4466 17.1584 29.4759 17.4524L30.1342 20.909ZM26.623 15.8165C26.6425 15.7596 26.6523 15.7074 26.6523 15.66C26.662 15.6031 26.6718 15.5509 26.6815 15.5035C26.7303 15.2854 26.7693 15.0815 26.7986 14.8918C26.8278 14.6927 26.8571 14.5125 26.8863 14.3513C26.9059 14.2754 26.9156 14.1995 26.9156 14.1237C26.9253 14.0478 26.9351 13.972 26.9449 13.8961C26.9546 13.8297 26.9644 13.7681 26.9741 13.7112C26.9839 13.6543 26.9936 13.6021 27.0034 13.5547C27.0131 13.5073 27.018 13.4646 27.018 13.4267C27.018 13.3793 27.0229 13.3413 27.0326 13.3129V13.256L27.018 13.3129C27.0083 13.3413 26.9985 13.3745 26.9887 13.4124C26.979 13.4504 26.9693 13.4931 26.9595 13.5405C26.94 13.5879 26.9253 13.6448 26.9156 13.7112C26.9059 13.7681 26.8912 13.8249 26.8717 13.8819C26.8522 13.9577 26.8327 14.0336 26.8132 14.1095C26.8034 14.1853 26.7888 14.2612 26.7693 14.3371C26.7205 14.4983 26.6718 14.6737 26.623 14.8634C26.584 15.0436 26.5401 15.2427 26.4913 15.4609C26.4913 15.5178 26.4865 15.5699 26.4767 15.6173C26.467 15.6647 26.4523 15.7169 26.4328 15.7738C26.4231 15.8307 26.4133 15.8876 26.4036 15.9445C26.3938 15.9919 26.384 16.0441 26.3743 16.101C26.345 16.2053 26.3158 16.3143 26.2865 16.4282C26.267 16.5419 26.2475 16.6557 26.228 16.7696C26.2085 16.8739 26.1841 16.9829 26.1549 17.0967C26.1353 17.2105 26.1158 17.3196 26.0963 17.4239C26.0866 17.4524 26.0817 17.4808 26.0817 17.5092C26.0817 17.5282 26.0768 17.5519 26.0671 17.5804C26.0476 17.6562 26.0378 17.7131 26.0378 17.7511C26.0086 17.8459 25.989 17.9502 25.9793 18.064C25.9598 18.1683 25.9403 18.2727 25.9208 18.377C25.9013 18.4813 25.8866 18.5761 25.8769 18.6615C25.8476 18.8796 25.8183 19.0598 25.7891 19.202C25.7696 19.2779 25.755 19.3538 25.7452 19.4296C25.7355 19.5055 25.7257 19.5814 25.716 19.6572C25.6964 19.7236 25.6818 19.79 25.672 19.8564C25.672 19.9133 25.6672 19.9654 25.6574 20.0129C25.6477 20.0602 25.6428 20.1029 25.6428 20.1409C25.6428 20.1788 25.6379 20.212 25.6282 20.2404C25.6282 20.2594 25.6233 20.2736 25.6136 20.2831C25.6136 20.2831 25.6136 20.2879 25.6136 20.2974V20.3116C25.6233 20.3116 25.6282 20.3068 25.6282 20.2974C25.6282 20.2784 25.633 20.2594 25.6428 20.2404C25.6526 20.2215 25.6574 20.193 25.6574 20.1551C25.6672 20.1077 25.6818 20.0602 25.7013 20.0129C25.7208 19.9654 25.7355 19.9133 25.7452 19.8564C25.7647 19.7995 25.7842 19.7378 25.8037 19.6715C25.8232 19.6051 25.8379 19.5339 25.8476 19.4581C25.8671 19.3822 25.8817 19.3063 25.8915 19.2305C25.911 19.1546 25.9305 19.074 25.95 18.9887C25.9793 18.8938 26.0037 18.799 26.0232 18.7042C26.0427 18.6093 26.0622 18.5097 26.0817 18.4054C26.111 18.3011 26.1402 18.1968 26.1695 18.0925C26.1792 18.0451 26.189 17.9976 26.1987 17.9502C26.2085 17.8933 26.2183 17.8412 26.228 17.7938L26.2719 17.623C26.2816 17.5946 26.2865 17.5661 26.2865 17.5377C26.2865 17.5092 26.2914 17.4808 26.3011 17.4524C26.3206 17.348 26.345 17.2437 26.3743 17.1394C26.4036 17.0256 26.428 16.9118 26.4474 16.798C26.467 16.6937 26.4865 16.5846 26.506 16.4708C26.5255 16.357 26.545 16.248 26.5645 16.1437C26.5743 16.0868 26.584 16.0298 26.5937 15.9729C26.6035 15.916 26.6133 15.8639 26.623 15.8165ZM27.8666 18.2489C27.9738 18.2395 28.0567 18.2015 28.1153 18.1351C28.1835 18.0593 28.2079 17.9692 28.1884 17.8649L28.1006 17.4524C28.0616 17.3196 27.9933 17.1963 27.8958 17.0825C27.808 16.9687 27.7007 16.8786 27.574 16.8122C27.691 16.7458 27.8178 16.7127 27.9543 16.7127L27.4862 14.2802L27.018 16.7127C27.1448 16.7127 27.2765 16.7458 27.413 16.8122C27.2765 16.8786 27.1594 16.9687 27.0619 17.0825C26.9741 17.1963 26.9156 17.3196 26.8863 17.4524L26.8132 17.8649C26.7937 17.9692 26.8132 18.0593 26.8717 18.1351C26.9303 18.2015 27.0083 18.2395 27.1058 18.2489H27.8666ZM29.3442 20.2404C29.3442 20.2594 29.3442 20.2736 29.3442 20.2831C29.3539 20.2831 29.3588 20.2879 29.3588 20.2974V20.2404C29.349 20.212 29.3442 20.1788 29.3442 20.1409C29.3442 20.1029 29.3393 20.0602 29.3296 20.0129C29.3198 19.9654 29.31 19.9133 29.3003 19.8564C29.3003 19.79 29.2905 19.7236 29.271 19.6572C29.2613 19.5814 29.2515 19.5055 29.2418 19.4296C29.232 19.3538 29.2174 19.2779 29.1979 19.202C29.1686 19.0598 29.1393 18.8796 29.1101 18.6615C29.0906 18.5761 29.0711 18.4813 29.0516 18.377C29.0418 18.2727 29.0272 18.1683 29.0077 18.064C28.9882 18.0071 28.9736 17.955 28.9638 17.9075C28.9638 17.8601 28.954 17.808 28.9345 17.7511C28.9345 17.7131 28.9248 17.6562 28.9053 17.5804C28.9053 17.5519 28.9004 17.5282 28.8906 17.5092C28.8906 17.4808 28.8906 17.4524 28.8906 17.4239C28.8711 17.3196 28.8468 17.2105 28.8175 17.0967C28.798 16.9829 28.7785 16.8739 28.759 16.7696C28.7395 16.6557 28.7151 16.5419 28.6858 16.4282C28.6663 16.3143 28.6419 16.2053 28.6127 16.101C28.6029 16.0441 28.5932 15.9919 28.5834 15.9445C28.5736 15.8876 28.5639 15.8307 28.5542 15.7738C28.5346 15.7169 28.52 15.6647 28.5103 15.6173C28.5005 15.5699 28.4908 15.5178 28.481 15.4609C28.4323 15.2427 28.3835 15.0436 28.3347 14.8634C28.2957 14.6737 28.2616 14.4983 28.2323 14.3371C28.2128 14.2612 28.1933 14.1853 28.1738 14.1095C28.1543 14.0336 28.1348 13.9577 28.1153 13.8819C28.0957 13.8249 28.0763 13.7681 28.0567 13.7112C28.047 13.6448 28.0323 13.5879 28.0129 13.5405C28.0031 13.4931 27.9933 13.4504 27.9836 13.4124C27.9738 13.3745 27.9641 13.3413 27.9543 13.3129L27.9397 13.256V13.3129C27.9495 13.3603 27.9641 13.4409 27.9836 13.5547C27.9836 13.6021 27.9885 13.6543 27.9982 13.7112C28.008 13.7681 28.0177 13.8297 28.0275 13.8961C28.0372 13.972 28.047 14.0478 28.0567 14.1237C28.0665 14.1995 28.0811 14.2754 28.1006 14.3513C28.1299 14.5125 28.1592 14.6927 28.1884 14.8918C28.2177 15.0815 28.2518 15.2854 28.2908 15.5035C28.3006 15.5509 28.3054 15.6031 28.3054 15.66C28.3152 15.7074 28.3298 15.7596 28.3493 15.8165C28.3591 15.8639 28.3689 15.916 28.3786 15.9729C28.3883 16.0298 28.3981 16.0868 28.4079 16.1437C28.4274 16.248 28.4469 16.357 28.4664 16.4708C28.4956 16.5846 28.52 16.6937 28.5395 16.798C28.559 16.9118 28.5834 17.0256 28.6127 17.1394C28.6419 17.2437 28.6663 17.348 28.6858 17.4524C28.6956 17.4808 28.7005 17.5092 28.7005 17.5377C28.7005 17.5661 28.7053 17.5946 28.7151 17.623L28.759 17.7938C28.7687 17.8412 28.7785 17.8933 28.7883 17.9502C28.798 17.9976 28.8077 18.0451 28.8175 18.0925C28.8468 18.1968 28.8711 18.3011 28.8906 18.4054C28.9102 18.5097 28.9296 18.6093 28.9492 18.7042C28.9687 18.799 28.9882 18.8938 29.0077 18.9887C29.0369 19.074 29.0613 19.1546 29.0808 19.2305C29.1003 19.3063 29.1199 19.3822 29.1393 19.4581C29.1589 19.5339 29.1784 19.6051 29.1979 19.6715C29.2271 19.8042 29.2564 19.918 29.2856 20.0129C29.3052 20.0602 29.3149 20.1077 29.3149 20.1551C29.3247 20.193 29.3344 20.2215 29.3442 20.2404Z" fill="#F4EDE8"/>
<path d="M36.2725 22.36C36.3798 22.3789 36.4529 22.4121 36.4919 22.4595C36.5407 22.507 36.5749 22.5544 36.5943 22.6018C36.6139 22.6587 36.6236 22.7203 36.6236 22.7867C36.3115 22.7867 36.0189 22.7488 35.7458 22.6729C35.4727 22.5971 35.2289 22.4738 35.0143 22.3031C34.8095 22.1324 34.6437 21.9095 34.5169 21.6345C34.3999 21.3595 34.3413 21.0228 34.3413 20.6245V18.6757C34.3413 18.5524 34.3365 18.4007 34.3267 18.2205C34.3169 18.0403 34.2828 17.8696 34.2243 17.7084C34.1658 17.5472 34.0731 17.4097 33.9463 17.2959C33.8293 17.1726 33.6537 17.111 33.4196 17.111H32.8198C32.732 17.1299 32.654 17.1773 32.5857 17.2532C32.5272 17.3196 32.4979 17.4002 32.4979 17.495V20.8948C32.4979 21.0655 32.5126 21.1935 32.5419 21.2789C32.5809 21.3548 32.6199 21.4164 32.6589 21.4638C32.6979 21.5017 32.732 21.5397 32.7613 21.5776C32.8003 21.6155 32.8198 21.6772 32.8198 21.7625H32.0444C31.9859 21.7625 31.9322 21.7388 31.8835 21.6914C31.8347 21.644 31.8103 21.5918 31.8103 21.5349C31.8103 21.5918 31.7859 21.644 31.7372 21.6914C31.6982 21.7388 31.6445 21.7625 31.5762 21.7625H30.8155C30.8155 21.6772 30.8301 21.6155 30.8594 21.5776C30.8984 21.5397 30.9374 21.5017 30.9764 21.4638C31.0155 21.4164 31.0496 21.3548 31.0789 21.2789C31.1179 21.203 31.1374 21.0845 31.1374 20.9233V17.4524C31.1081 17.1584 30.9715 16.945 30.7277 16.8122C30.835 16.7458 30.9715 16.7127 31.1374 16.7127V12.6443C31.1374 12.4831 31.1179 12.3645 31.0789 12.2887C31.0496 12.2128 31.0155 12.1559 30.9764 12.118C30.9374 12.0705 30.8984 12.0279 30.8594 11.9899C30.8301 11.952 30.8155 11.8903 30.8155 11.805H31.5909C31.6494 11.805 31.7031 11.8287 31.7518 11.8762C31.8006 11.9141 31.825 11.9663 31.825 12.0326C31.825 11.8809 31.903 11.805 32.0591 11.805H33.4343C33.7464 11.805 34.039 11.8619 34.3121 11.9757C34.5852 12.0895 34.8241 12.246 35.0289 12.4451C35.2338 12.6348 35.3947 12.8624 35.5117 13.1279C35.6288 13.3935 35.6922 13.6732 35.7019 13.9672V14.8918C35.7019 15.2901 35.6044 15.6553 35.4093 15.9872C35.2142 16.3191 34.9509 16.5846 34.6193 16.7838C34.9509 16.9734 35.2142 17.239 35.4093 17.5804C35.6044 17.9123 35.7019 18.2774 35.7019 18.6757V20.5676C35.7019 20.7668 35.7019 20.9707 35.7019 21.1793C35.7117 21.3784 35.736 21.5634 35.7751 21.7341C35.8141 21.8953 35.8726 22.0328 35.9506 22.1466C36.0286 22.2604 36.1359 22.3315 36.2725 22.36ZM34.9412 14.65C34.9314 14.669 34.9265 14.6927 34.9265 14.7211V15.0483C34.9168 15.0863 34.9119 15.1242 34.9119 15.1621C34.9119 15.1906 34.9119 15.219 34.9119 15.2475C34.9119 15.2664 34.907 15.2807 34.8972 15.2901C34.8972 15.2996 34.8972 15.3139 34.8972 15.3328V15.4182C34.8875 15.4371 34.8826 15.4609 34.8826 15.4893C34.8826 15.5082 34.8778 15.5272 34.868 15.5462C34.868 15.5652 34.8631 15.5794 34.8534 15.5889V15.6173L34.8387 15.6458C34.8387 15.6458 34.8485 15.641 34.868 15.6315V15.6173L34.8826 15.6031C34.8924 15.5936 34.8972 15.5889 34.8972 15.5889C34.8972 15.5794 34.9022 15.5699 34.9119 15.5604C34.9216 15.5414 34.9314 15.5225 34.9412 15.5035C34.9509 15.4751 34.9607 15.4514 34.9704 15.4324C34.9802 15.4134 34.985 15.404 34.985 15.404C34.985 15.3945 34.9899 15.3802 34.9997 15.3613C35.0094 15.3423 35.0143 15.3281 35.0143 15.3186C35.0143 15.2996 35.0192 15.2807 35.0289 15.2617C35.0387 15.2428 35.0435 15.2285 35.0435 15.219C35.0435 15.2096 35.0485 15.1953 35.0582 15.1764C35.0582 15.1574 35.0582 15.1432 35.0582 15.1337C35.0679 15.1147 35.0728 15.0957 35.0728 15.0768C35.0826 15.0388 35.0875 15.0009 35.0875 14.963C35.0972 14.925 35.1069 14.8871 35.1167 14.8492C35.1265 14.8207 35.1313 14.7781 35.1313 14.7211C35.1313 14.7022 35.1313 14.6832 35.1313 14.6642C35.1411 14.6453 35.146 14.6263 35.146 14.6073V14.1095C35.146 14.0526 35.1411 14.0099 35.1313 13.9814V13.9245C35.1313 13.9056 35.1265 13.8961 35.1167 13.8961C35.1167 13.8866 35.1167 13.8724 35.1167 13.8534C35.1167 13.806 35.1069 13.7349 35.0875 13.64C35.0777 13.6211 35.0728 13.6021 35.0728 13.5831C35.0728 13.5642 35.0679 13.5452 35.0582 13.5263C35.0582 13.5168 35.0533 13.512 35.0435 13.512C35.0435 13.5025 35.0435 13.4931 35.0435 13.4836C35.0435 13.4741 35.0387 13.4694 35.0289 13.4694C35.0289 13.4599 35.0289 13.4504 35.0289 13.4409C35.0192 13.4219 35.0143 13.4077 35.0143 13.3982C35.0143 13.3887 35.0094 13.3745 34.9997 13.3555C34.9899 13.3366 34.985 13.3223 34.985 13.3129C34.985 13.3034 34.9802 13.2892 34.9704 13.2702C34.9607 13.2607 34.9558 13.2512 34.9558 13.2418C34.9558 13.2322 34.9509 13.2228 34.9412 13.2133C34.9216 13.1754 34.9119 13.1564 34.9119 13.1564C34.9022 13.1469 34.8972 13.1422 34.8972 13.1422C34.8972 13.1327 34.8924 13.1232 34.8826 13.1137C34.8729 13.1042 34.868 13.0948 34.868 13.0853C34.8582 13.0758 34.8534 13.0663 34.8534 13.0568H34.8387C34.8387 13.0568 34.8436 13.0663 34.8534 13.0853V13.1137C34.8631 13.1232 34.868 13.1422 34.868 13.1706C34.868 13.1801 34.868 13.1896 34.868 13.1991C34.8778 13.1991 34.8826 13.2086 34.8826 13.2275C34.8826 13.256 34.8875 13.2797 34.8972 13.2986V13.3698C34.8972 13.3887 34.8972 13.403 34.8972 13.4124C34.907 13.4219 34.9119 13.4362 34.9119 13.4551C34.9119 13.5405 34.9168 13.6068 34.9265 13.6543V13.8819C34.9363 13.9293 34.9412 14.0051 34.9412 14.1095V14.65ZM31.9274 16.1152C31.9274 16.0678 31.9225 16.0156 31.9128 15.9587C31.9128 15.9018 31.9128 15.8449 31.9128 15.788V15.4751C31.903 15.2664 31.8981 15.0673 31.8981 14.8776C31.8981 14.688 31.8932 14.5078 31.8835 14.3371C31.8737 14.2612 31.8689 14.1853 31.8689 14.1095C31.8689 14.0336 31.864 13.9625 31.8542 13.8961C31.8542 13.8202 31.8494 13.7538 31.8396 13.6969C31.8396 13.64 31.8396 13.5879 31.8396 13.5405C31.8396 13.4931 31.8347 13.4504 31.825 13.4124C31.825 13.3745 31.825 13.3413 31.825 13.3129V13.2418C31.8152 13.2418 31.8103 13.2465 31.8103 13.256V13.3129C31.8103 13.3413 31.8055 13.3745 31.7957 13.4124C31.7957 13.4504 31.7957 13.4931 31.7957 13.5405C31.7957 13.5879 31.7909 13.64 31.7811 13.6969C31.7811 13.7538 31.7811 13.8202 31.7811 13.8961C31.7713 13.9625 31.7665 14.0336 31.7665 14.1095C31.7665 14.1853 31.7616 14.2612 31.7518 14.3371C31.7421 14.5078 31.7372 14.688 31.7372 14.8776C31.7372 15.0673 31.7323 15.2664 31.7225 15.4751V15.788C31.7225 15.8449 31.7177 15.9018 31.7079 15.9587C31.7079 16.0156 31.7079 16.0678 31.7079 16.1152V17.4381C31.7079 17.514 31.7128 17.5709 31.7225 17.6088V18.0783C31.7225 18.1826 31.7225 18.2869 31.7225 18.3912C31.7323 18.4861 31.7372 18.5809 31.7372 18.6757C31.7372 18.78 31.7372 18.8748 31.7372 18.9602C31.7469 19.0456 31.7518 19.1309 31.7518 19.2162C31.7616 19.3016 31.7665 19.3822 31.7665 19.4581C31.7665 19.5245 31.7713 19.5956 31.7811 19.6715C31.7811 19.7378 31.7811 19.7995 31.7811 19.8564C31.7909 19.9133 31.7957 19.9654 31.7957 20.0129C31.7957 20.0603 31.7957 20.1077 31.7957 20.1551C31.8055 20.193 31.8103 20.2215 31.8103 20.2405V20.3116C31.8103 20.3211 31.8152 20.3258 31.825 20.3258V20.2405C31.825 20.2215 31.825 20.193 31.825 20.1551C31.8347 20.1077 31.8396 20.0603 31.8396 20.0129C31.8396 19.9654 31.8396 19.9133 31.8396 19.8564C31.8494 19.7995 31.8542 19.7378 31.8542 19.6715C31.864 19.5956 31.8689 19.5245 31.8689 19.4581C31.8689 19.3822 31.8737 19.3016 31.8835 19.2162C31.8835 19.1309 31.8835 19.0456 31.8835 18.9602C31.8932 18.8748 31.8981 18.78 31.8981 18.6757C31.8981 18.5809 31.8981 18.4861 31.8981 18.3912C31.9079 18.2869 31.9128 18.1826 31.9128 18.0783V17.7653C31.9128 17.6894 31.9176 17.6373 31.9274 17.6088V16.1152ZM34.3413 14.0241C34.3413 13.9009 34.3365 13.7491 34.3267 13.5689C34.3169 13.3887 34.2828 13.2181 34.2243 13.0568C34.1658 12.8956 34.0731 12.7581 33.9463 12.6443C33.8293 12.521 33.6537 12.4594 33.4196 12.4594H32.8929C32.7857 12.4689 32.693 12.5115 32.615 12.5874C32.537 12.6633 32.4979 12.7534 32.4979 12.8576V16.0583C32.4979 16.1626 32.537 16.2527 32.615 16.3286C32.693 16.4044 32.7857 16.4424 32.8929 16.4424H33.4196C33.6537 16.4424 33.8293 16.3855 33.9463 16.2717C34.0731 16.1579 34.1658 16.0204 34.2243 15.8591C34.2828 15.6884 34.3169 15.5178 34.3267 15.347C34.3365 15.1668 34.3413 15.0151 34.3413 14.8918V14.0241ZM35.3215 21.8194C35.3215 21.8194 35.3166 21.8147 35.3069 21.8052L35.2923 21.791C35.2825 21.772 35.2728 21.753 35.263 21.7341C35.263 21.7151 35.2532 21.6962 35.2338 21.6772C35.224 21.6487 35.2142 21.6203 35.2045 21.5918C35.1947 21.5539 35.185 21.5112 35.1752 21.4638C35.1557 21.369 35.146 21.2789 35.146 21.1935C35.1362 21.1461 35.1313 21.0987 35.1313 21.0513C35.1313 20.9944 35.1313 20.9327 35.1313 20.8664V20.1124C35.1313 20.0461 35.1313 19.9797 35.1313 19.9133C35.1313 19.8469 35.1362 19.7758 35.146 19.6999C35.146 19.6335 35.146 19.5671 35.146 19.5007C35.146 19.4344 35.1411 19.368 35.1313 19.3016V19.1024C35.1313 19.0076 35.1265 18.9412 35.1167 18.9033C35.1167 18.8369 35.1119 18.7753 35.1021 18.7184C35.1021 18.652 35.0972 18.5903 35.0875 18.5334C35.0679 18.4007 35.0485 18.2869 35.0289 18.192C35.0192 18.1446 35.0094 18.1019 34.9997 18.064C34.9899 18.0166 34.9753 17.9692 34.9558 17.9218C34.9363 17.8743 34.9216 17.8364 34.9119 17.808C34.9022 17.7795 34.8875 17.7511 34.868 17.7226C34.8485 17.6942 34.8339 17.6705 34.8241 17.6515C34.8144 17.6325 34.8046 17.6136 34.7949 17.5946C34.7851 17.5946 34.7753 17.5899 34.7656 17.5804C34.7559 17.5804 34.751 17.5756 34.751 17.5661L34.7656 17.5804C34.7656 17.5899 34.7705 17.5993 34.7802 17.6088C34.7802 17.6183 34.7802 17.6278 34.7802 17.6373C34.79 17.6373 34.7949 17.6468 34.7949 17.6657C34.8046 17.6752 34.8095 17.6847 34.8095 17.6942C34.8095 17.7037 34.8144 17.7179 34.8241 17.7369C34.8339 17.7748 34.8485 17.8412 34.868 17.936C34.8778 17.9834 34.8826 18.0308 34.8826 18.0783C34.8924 18.1257 34.9022 18.1731 34.9119 18.2205C34.9119 18.2679 34.9119 18.3201 34.9119 18.377C34.9216 18.4244 34.9265 18.4813 34.9265 18.5477V20.3116C34.9265 20.3495 34.9265 20.3827 34.9265 20.4111C34.9363 20.4396 34.9412 20.4728 34.9412 20.5107C34.9412 20.5771 34.9412 20.6435 34.9412 20.7099C34.9509 20.7668 34.9607 20.8237 34.9704 20.8806C34.9802 20.9375 34.985 20.9944 34.985 21.0513C34.9948 21.1082 35.0045 21.1603 35.0143 21.2078C35.0338 21.2647 35.0485 21.3168 35.0582 21.3642C35.0679 21.4021 35.0826 21.4448 35.1021 21.4922C35.1216 21.5397 35.1362 21.5776 35.146 21.6061C35.1557 21.6345 35.1704 21.663 35.1899 21.6914L35.2191 21.7198C35.2289 21.7294 35.2338 21.7388 35.2338 21.7483C35.2338 21.7483 35.2386 21.753 35.2484 21.7625L35.3069 21.8194H35.3215Z" fill="#F4EDE8"/>
<path d="M40.6592 14.8918C40.6592 15.2901 40.5617 15.6553 40.3666 15.9872C40.1715 16.3191 39.9082 16.5846 39.5766 16.7838C39.9082 16.9734 40.1715 17.239 40.3666 17.5804C40.5617 17.9123 40.6592 18.2774 40.6592 18.6757V19.6003C40.6494 19.9038 40.586 20.1883 40.469 20.4538C40.352 20.7099 40.191 20.9375 39.9862 21.1366C39.7814 21.3263 39.5424 21.478 39.2693 21.5918C38.9963 21.7056 38.7037 21.7625 38.3916 21.7625H37.0017C36.9432 21.7625 36.8896 21.7388 36.8408 21.6914C36.792 21.644 36.7676 21.5918 36.7676 21.5349C36.7676 21.5918 36.7433 21.644 36.6945 21.6914C36.6555 21.7388 36.6018 21.7625 36.5336 21.7625H35.7728C35.7728 21.6772 35.7874 21.6155 35.8167 21.5776C35.8557 21.5397 35.8947 21.5017 35.9337 21.4638C35.9727 21.4164 36.0069 21.3548 36.0361 21.2789C36.0751 21.203 36.0946 21.0845 36.0946 20.9233V17.4524C36.0654 17.1584 35.9288 16.945 35.685 16.8122C35.7923 16.7458 35.9288 16.7127 36.0946 16.7127V12.6443C36.0946 12.4831 36.0751 12.3645 36.0361 12.2887C36.0069 12.2128 35.9727 12.1559 35.9337 12.118C35.8947 12.0705 35.8557 12.0279 35.8167 11.9899C35.7874 11.952 35.7728 11.8903 35.7728 11.805H36.5482C36.6067 11.805 36.6603 11.8287 36.7091 11.8762C36.7579 11.9141 36.7823 11.9663 36.7823 12.0326C36.7823 11.8809 36.8603 11.805 37.0163 11.805H38.3916C38.7037 11.805 38.9963 11.8619 39.2693 11.9757C39.5424 12.0895 39.7814 12.246 39.9862 12.4451C40.191 12.6348 40.352 12.8624 40.469 13.1279C40.586 13.3935 40.6494 13.6732 40.6592 13.9672V14.8918ZM36.8847 16.1152C36.8847 16.0678 36.8798 16.0156 36.87 15.9587C36.87 15.9018 36.87 15.8449 36.87 15.788V15.4751C36.8603 15.2664 36.8554 15.0673 36.8554 14.8776C36.8554 14.688 36.8505 14.5078 36.8408 14.3371C36.831 14.2612 36.8261 14.1853 36.8261 14.1095C36.8261 14.0336 36.8213 13.9625 36.8115 13.8961C36.8115 13.8202 36.8066 13.7538 36.7969 13.6969C36.7969 13.64 36.7969 13.5879 36.7969 13.5405C36.7969 13.4931 36.792 13.4504 36.7823 13.4124C36.7823 13.3745 36.7823 13.3413 36.7823 13.3129V13.2418C36.7725 13.2418 36.7676 13.2465 36.7676 13.256V13.3129C36.7676 13.3413 36.7627 13.3745 36.753 13.4124C36.753 13.4504 36.753 13.4931 36.753 13.5405C36.753 13.5879 36.7481 13.64 36.7383 13.6969C36.7383 13.7538 36.7383 13.8202 36.7383 13.8961C36.7286 13.9625 36.7237 14.0336 36.7237 14.1095C36.7237 14.1853 36.7189 14.2612 36.7091 14.3371C36.6993 14.5078 36.6945 14.688 36.6945 14.8776C36.6945 15.0673 36.6896 15.2664 36.6799 15.4751V15.788C36.6799 15.8449 36.675 15.9018 36.6652 15.9587C36.6652 16.0156 36.6652 16.0678 36.6652 16.1152V17.4381C36.6652 17.514 36.6701 17.5709 36.6799 17.6088V18.0783C36.6799 18.1826 36.6799 18.2869 36.6799 18.3912C36.6896 18.486 36.6945 18.5809 36.6945 18.6757C36.6945 18.78 36.6945 18.8748 36.6945 18.9602C36.7042 19.0456 36.7091 19.1309 36.7091 19.2162C36.7189 19.3016 36.7237 19.3822 36.7237 19.4581C36.7237 19.5245 36.7286 19.5956 36.7383 19.6715C36.7383 19.7378 36.7383 19.7995 36.7383 19.8564C36.7481 19.9133 36.753 19.9654 36.753 20.0129C36.753 20.0602 36.753 20.1077 36.753 20.1551C36.7627 20.193 36.7676 20.2215 36.7676 20.2404V20.3116C36.7676 20.3211 36.7725 20.3258 36.7823 20.3258V20.2404C36.7823 20.2215 36.7823 20.193 36.7823 20.1551C36.792 20.1077 36.7969 20.0602 36.7969 20.0129C36.7969 19.9654 36.7969 19.9133 36.7969 19.8564C36.8066 19.7995 36.8115 19.7378 36.8115 19.6715C36.8213 19.5956 36.8261 19.5245 36.8261 19.4581C36.8261 19.3822 36.831 19.3016 36.8408 19.2162C36.8408 19.1309 36.8408 19.0456 36.8408 18.9602C36.8505 18.8748 36.8554 18.78 36.8554 18.6757C36.8554 18.5809 36.8554 18.486 36.8554 18.3912C36.8652 18.2869 36.87 18.1826 36.87 18.0783V17.7653C36.87 17.6894 36.8749 17.6373 36.8847 17.6088V16.1152ZM39.8984 19.4154C39.8887 19.4344 39.8838 19.4581 39.8838 19.4865V19.8137C39.874 19.8516 39.8692 19.8896 39.8692 19.9275C39.8692 19.956 39.8692 19.9844 39.8692 20.0129C39.8692 20.0318 39.8643 20.0461 39.8546 20.0555C39.8546 20.065 39.8546 20.0792 39.8546 20.0982V20.1835C39.8448 20.2025 39.8399 20.2262 39.8399 20.2547C39.8399 20.2736 39.835 20.2926 39.8253 20.3116C39.8253 20.3305 39.8204 20.3448 39.8107 20.3543V20.3827L39.796 20.4111C39.796 20.4111 39.8058 20.4064 39.8253 20.3969V20.3827L39.8399 20.3685C39.8497 20.359 39.8546 20.3543 39.8546 20.3543C39.8546 20.3448 39.8594 20.3353 39.8692 20.3258C39.8789 20.3068 39.8887 20.2879 39.8984 20.2689C39.9082 20.2405 39.918 20.2167 39.9277 20.1978C39.9374 20.1788 39.9423 20.1693 39.9423 20.1693C39.9423 20.1598 39.9472 20.1456 39.957 20.1266C39.9667 20.1077 39.9716 20.0934 39.9716 20.084C39.9716 20.0745 39.9765 20.0602 39.9862 20.0413C39.996 20.0223 40.0009 20.0081 40.0009 19.9986C40.0009 19.9797 40.0057 19.9607 40.0155 19.9417C40.0155 19.9228 40.0155 19.9085 40.0155 19.899C40.0252 19.8801 40.0301 19.8611 40.0301 19.8421C40.0399 19.8042 40.0447 19.7663 40.0447 19.7284C40.0545 19.6904 40.0643 19.6525 40.074 19.6146C40.0837 19.5861 40.0886 19.5434 40.0886 19.4865C40.0886 19.4675 40.0886 19.4486 40.0886 19.4296C40.0984 19.4106 40.1033 19.3917 40.1033 19.3727V18.8748C40.1033 18.8179 40.0984 18.7753 40.0886 18.7468V18.6899C40.0886 18.671 40.0837 18.6615 40.074 18.6615C40.074 18.652 40.074 18.6425 40.074 18.633C40.074 18.5856 40.0691 18.5477 40.0594 18.5192C40.0594 18.4813 40.0545 18.4433 40.0447 18.4054C40.035 18.3865 40.0301 18.3675 40.0301 18.3485C40.0301 18.3296 40.0252 18.3106 40.0155 18.2916C40.0155 18.2821 40.0106 18.2774 40.0009 18.2774C40.0009 18.2679 40.0009 18.2584 40.0009 18.2489C40.0009 18.2395 39.996 18.2347 39.9862 18.2347C39.9862 18.2252 39.9862 18.2157 39.9862 18.2063C39.9765 18.1873 39.9716 18.1731 39.9716 18.1636C39.9716 18.1541 39.9667 18.1399 39.957 18.1209C39.9472 18.1019 39.9423 18.0877 39.9423 18.0783C39.9423 18.0687 39.9374 18.0545 39.9277 18.0356C39.918 18.0261 39.9131 18.0166 39.9131 18.0071C39.9131 17.9976 39.9082 17.9882 39.8984 17.9787C39.8789 17.9407 39.8692 17.9218 39.8692 17.9218C39.8594 17.9123 39.8546 17.9075 39.8546 17.9075C39.8546 17.8981 39.8497 17.8886 39.8399 17.8791C39.8302 17.8696 39.8253 17.8601 39.8253 17.8506L39.796 17.8222C39.796 17.8222 39.8009 17.8317 39.8107 17.8506V17.8791C39.8204 17.8886 39.8253 17.9075 39.8253 17.936C39.8253 17.9455 39.8253 17.955 39.8253 17.9644C39.835 17.9644 39.8399 17.9739 39.8399 17.9929C39.8399 18.0214 39.8448 18.0451 39.8546 18.064V18.1351C39.8546 18.1541 39.8546 18.1683 39.8546 18.1778C39.8643 18.1873 39.8692 18.2015 39.8692 18.2205C39.8692 18.3058 39.874 18.3722 39.8838 18.4197V18.6473C39.8936 18.6947 39.8984 18.7705 39.8984 18.8748V19.4154ZM39.2986 18.6757C39.2986 18.5524 39.2937 18.4007 39.284 18.2205C39.2742 18.0403 39.2401 17.8696 39.1816 17.7084C39.123 17.5472 39.0304 17.4097 38.9036 17.2959C38.7866 17.1726 38.611 17.111 38.3769 17.111H37.8503C37.743 17.1204 37.6503 17.1631 37.5723 17.239C37.4943 17.3148 37.4552 17.4049 37.4552 17.5092V20.7099C37.4552 20.8142 37.4943 20.9043 37.5723 20.9802C37.6503 21.056 37.743 21.0939 37.8503 21.0939H38.3769C38.611 21.0939 38.7866 21.0371 38.9036 20.9233C39.0304 20.8094 39.123 20.672 39.1816 20.5107C39.2401 20.34 39.2742 20.1693 39.284 19.9986C39.2937 19.8184 39.2986 19.6667 39.2986 19.5434V18.6757ZM39.2986 14.0241C39.2986 13.9009 39.2937 13.7491 39.284 13.5689C39.2742 13.3887 39.2401 13.218 39.1816 13.0568C39.123 12.8956 39.0304 12.7581 38.9036 12.6443C38.7866 12.521 38.611 12.4594 38.3769 12.4594H37.8503C37.743 12.4689 37.6503 12.5115 37.5723 12.5874C37.4943 12.6633 37.4552 12.7534 37.4552 12.8576V16.0583C37.4552 16.1626 37.4943 16.2527 37.5723 16.3286C37.6503 16.4044 37.743 16.4424 37.8503 16.4424H38.3769C38.611 16.4424 38.7866 16.3855 38.9036 16.2717C39.0304 16.1579 39.123 16.0204 39.1816 15.8591C39.2401 15.6884 39.2742 15.5178 39.284 15.347C39.2937 15.1668 39.2986 15.0151 39.2986 14.8918V14.0241ZM39.9277 15.4324C39.9374 15.4134 39.9423 15.404 39.9423 15.404C39.9423 15.3945 39.9472 15.3802 39.957 15.3613C39.9667 15.3423 39.9716 15.3281 39.9716 15.3186C39.9716 15.2996 39.9765 15.2807 39.9862 15.2617C39.996 15.2427 40.0009 15.2285 40.0009 15.219C40.0009 15.2096 40.0057 15.1953 40.0155 15.1764C40.0155 15.1574 40.0155 15.1432 40.0155 15.1337C40.0252 15.1147 40.0301 15.0957 40.0301 15.0768C40.0399 15.0388 40.0447 15.0009 40.0447 14.963C40.0545 14.925 40.0643 14.8871 40.074 14.8492C40.0837 14.8207 40.0886 14.7781 40.0886 14.7211C40.0886 14.7022 40.0886 14.6832 40.0886 14.6642C40.0984 14.6453 40.1033 14.6263 40.1033 14.6073V14.1095C40.1033 14.0526 40.0984 14.0099 40.0886 13.9814V13.9245C40.0886 13.9056 40.0837 13.8961 40.074 13.8961C40.074 13.8866 40.074 13.8724 40.074 13.8534C40.074 13.806 40.0643 13.7349 40.0447 13.64C40.035 13.6211 40.0301 13.6021 40.0301 13.5831C40.0301 13.5642 40.0252 13.5452 40.0155 13.5263C40.0155 13.5168 40.0106 13.512 40.0009 13.512C40.0009 13.5025 40.0009 13.4931 40.0009 13.4836C40.0009 13.4741 39.996 13.4694 39.9862 13.4694C39.9862 13.4599 39.9862 13.4504 39.9862 13.4409C39.9765 13.4219 39.9716 13.4077 39.9716 13.3982C39.9716 13.3887 39.9667 13.3745 39.957 13.3555C39.9472 13.3366 39.9423 13.3223 39.9423 13.3129C39.9423 13.3034 39.9374 13.2892 39.9277 13.2702C39.918 13.2607 39.9131 13.2512 39.9131 13.2418C39.9131 13.2322 39.9082 13.2228 39.8984 13.2133C39.8789 13.1754 39.8692 13.1564 39.8692 13.1564C39.8594 13.1469 39.8546 13.1422 39.8546 13.1422C39.8546 13.1327 39.8497 13.1232 39.8399 13.1137C39.8302 13.1042 39.8253 13.0948 39.8253 13.0853C39.8155 13.0758 39.8107 13.0663 39.8107 13.0568H39.796C39.796 13.0568 39.8009 13.0663 39.8107 13.0853V13.1137C39.8204 13.1232 39.8253 13.1422 39.8253 13.1706C39.8253 13.1801 39.8253 13.1896 39.8253 13.1991C39.835 13.1991 39.8399 13.2086 39.8399 13.2275C39.8399 13.256 39.8448 13.2797 39.8546 13.2986V13.3698C39.8546 13.3887 39.8546 13.403 39.8546 13.4124C39.8643 13.4219 39.8692 13.4362 39.8692 13.4551C39.8692 13.5405 39.874 13.6068 39.8838 13.6543V13.8819C39.8936 13.9293 39.8984 14.0051 39.8984 14.1095V14.65C39.8887 14.669 39.8838 14.6927 39.8838 14.7211V15.0483C39.874 15.0863 39.8692 15.1242 39.8692 15.1621C39.8692 15.1906 39.8692 15.219 39.8692 15.2475C39.8692 15.2664 39.8643 15.2807 39.8546 15.2901C39.8546 15.2996 39.8546 15.3139 39.8546 15.3328V15.4182C39.8448 15.4371 39.8399 15.4609 39.8399 15.4893C39.8399 15.5082 39.835 15.5272 39.8253 15.5462C39.8253 15.5652 39.8204 15.5794 39.8107 15.5889V15.6173L39.796 15.6458C39.796 15.6458 39.8058 15.641 39.8253 15.6315V15.6173L39.8399 15.6031C39.8497 15.5936 39.8546 15.5889 39.8546 15.5889C39.8546 15.5794 39.8594 15.5699 39.8692 15.5604C39.8789 15.5414 39.8887 15.5225 39.8984 15.5035C39.9082 15.4751 39.918 15.4514 39.9277 15.4324Z" fill="#F4EDE8"/>
<path d="M45.6456 20.8948C45.6456 21.0655 45.6604 21.1935 45.6896 21.2789C45.7287 21.3548 45.7678 21.4164 45.8065 21.4638C45.8456 21.5017 45.88 21.5397 45.9091 21.5776C45.9482 21.6155 45.9674 21.6772 45.9674 21.7625H41.9882C41.9297 21.7625 41.8761 21.7388 41.8273 21.6914C41.7785 21.644 41.7542 21.5918 41.7542 21.5349C41.7542 21.5918 41.7298 21.644 41.681 21.6914C41.642 21.7388 41.5883 21.7625 41.5201 21.7625H40.7593C40.7593 21.6772 40.7739 21.6155 40.8032 21.5776C40.8422 21.5397 40.8812 21.5017 40.9202 21.4638C40.9592 21.4164 40.9934 21.3548 41.0226 21.2789C41.0616 21.203 41.0812 21.0845 41.0812 20.9233V17.4524C41.0519 17.1584 40.9154 16.945 40.6715 16.8122C40.7788 16.7458 40.9154 16.7127 41.0812 16.7127V12.6443C41.0812 12.4831 41.0616 12.3645 41.0226 12.2887C40.9934 12.2128 40.9592 12.1559 40.9202 12.118C40.8812 12.0705 40.8422 12.0279 40.8032 11.9899C40.7739 11.952 40.7593 11.8903 40.7593 11.805H41.5347C41.5932 11.805 41.6469 11.8287 41.6956 11.8762C41.7444 11.9141 41.7688 11.9663 41.7688 12.0326C41.7688 11.8809 41.8468 11.805 42.0029 11.805H45.9674C45.9674 11.8903 45.9482 11.952 45.9091 11.9899C45.88 12.0279 45.8456 12.0705 45.8065 12.118C45.7678 12.1559 45.7287 12.2176 45.6896 12.3029C45.6604 12.3788 45.6456 12.5021 45.6456 12.6727V14.5647C45.3043 14.5647 45.0409 14.503 44.8556 14.3797C44.68 14.247 44.5487 14.1 44.4609 13.9388C44.3535 13.7586 44.2948 13.5452 44.2852 13.2986V12.8576C44.2852 12.7534 44.2461 12.6633 44.1682 12.5874C44.09 12.5115 43.9974 12.4689 43.89 12.4594H42.8368C42.7295 12.4689 42.6368 12.5115 42.5588 12.5874C42.4808 12.6633 42.4418 12.7534 42.4418 12.8576V16.0583C42.4418 16.1626 42.4808 16.2527 42.5588 16.3286C42.6368 16.4044 42.7295 16.4424 42.8368 16.4424H42.9392C43.0465 16.4424 43.1342 16.4044 43.2025 16.3286C43.2806 16.2527 43.3196 16.1626 43.3196 16.0583V16.0441C43.3293 15.9018 43.3683 15.7785 43.4366 15.6742C43.4952 15.5794 43.583 15.4941 43.7 15.4182C43.8169 15.3423 43.9878 15.3044 44.2122 15.3044V18.2489C43.9878 18.2489 43.8169 18.211 43.7 18.1351C43.583 18.0593 43.4952 17.9739 43.4366 17.8791C43.3683 17.7748 43.3293 17.6515 43.3196 17.5092C43.3196 17.4049 43.2806 17.3148 43.2025 17.239C43.1342 17.1631 43.0465 17.1204 42.9392 17.111H42.8368C42.7295 17.1204 42.6368 17.1631 42.5588 17.239C42.4808 17.3148 42.4418 17.4049 42.4418 17.5092V20.7099C42.4418 20.8142 42.4808 20.9043 42.5588 20.9802C42.6368 21.056 42.7295 21.0939 42.8368 21.0939H43.89C43.9974 21.0939 44.09 21.056 44.1682 20.9802C44.2461 20.9043 44.2852 20.8142 44.2852 20.7099V20.2547C44.2948 20.0176 44.3535 19.8089 44.4609 19.6288C44.5487 19.4675 44.68 19.3206 44.8556 19.1878C45.0409 19.055 45.3043 18.9887 45.6456 18.9887V20.8948ZM41.8712 16.1152C41.8712 16.0678 41.8663 16.0156 41.8566 15.9587C41.8566 15.9018 41.8566 15.8449 41.8566 15.788V15.4751C41.8468 15.2664 41.8419 15.0673 41.8419 14.8776C41.8419 14.688 41.837 14.5078 41.8273 14.3371C41.8175 14.2612 41.8127 14.1853 41.8127 14.1095C41.8127 14.0336 41.8078 13.9625 41.798 13.8961C41.798 13.8202 41.7932 13.7538 41.7834 13.6969C41.7834 13.64 41.7834 13.5879 41.7834 13.5405C41.7834 13.4931 41.7785 13.4504 41.7688 13.4124C41.7688 13.3745 41.7688 13.3413 41.7688 13.3129V13.2418C41.759 13.2418 41.7542 13.2465 41.7542 13.256V13.3129C41.7542 13.3413 41.7492 13.3745 41.7395 13.4124C41.7395 13.4504 41.7395 13.4931 41.7395 13.5405C41.7395 13.5879 41.7346 13.64 41.7249 13.6969C41.7249 13.7538 41.7249 13.8202 41.7249 13.8961C41.7151 13.9625 41.7102 14.0336 41.7102 14.1095C41.7102 14.1853 41.7054 14.2612 41.6956 14.3371C41.6859 14.5078 41.681 14.688 41.681 14.8776C41.681 15.0673 41.6761 15.2664 41.6664 15.4751V15.788C41.6664 15.8449 41.6615 15.9018 41.6517 15.9587C41.6517 16.0156 41.6517 16.0678 41.6517 16.1152V17.4381C41.6517 17.514 41.6566 17.5709 41.6664 17.6088V18.0783C41.6664 18.1826 41.6664 18.2869 41.6664 18.3912C41.6761 18.486 41.681 18.5809 41.681 18.6757C41.681 18.78 41.681 18.8748 41.681 18.9602C41.6907 19.0456 41.6956 19.1309 41.6956 19.2162C41.7054 19.3016 41.7102 19.3822 41.7102 19.4581C41.7102 19.5245 41.7151 19.5956 41.7249 19.6715C41.7249 19.7378 41.7249 19.7995 41.7249 19.8564C41.7346 19.9133 41.7395 19.9654 41.7395 20.0129C41.7395 20.0602 41.7395 20.1077 41.7395 20.1551C41.7492 20.193 41.7542 20.2215 41.7542 20.2404V20.3116C41.7542 20.3211 41.759 20.3258 41.7688 20.3258V20.2404C41.7688 20.2215 41.7688 20.193 41.7688 20.1551C41.7785 20.1077 41.7834 20.0602 41.7834 20.0129C41.7834 19.9654 41.7834 19.9133 41.7834 19.8564C41.7932 19.7995 41.798 19.7378 41.798 19.6715C41.8078 19.5956 41.8127 19.5245 41.8127 19.4581C41.8127 19.3822 41.8175 19.3016 41.8273 19.2162C41.8273 19.1309 41.8273 19.0456 41.8273 18.9602C41.837 18.8748 41.8419 18.78 41.8419 18.6757C41.8419 18.5809 41.8419 18.486 41.8419 18.3912C41.8517 18.2869 41.8566 18.1826 41.8566 18.0783V17.7653C41.8566 17.6894 41.8614 17.6373 41.8712 17.6088V16.1152Z" fill="#F4EDE8"/>
<path d="M51.5309 22.36C51.6383 22.3789 51.7113 22.4121 51.7504 22.4595C51.7991 22.507 51.8335 22.5544 51.853 22.6018C51.8726 22.6587 51.8822 22.7203 51.8822 22.7867C51.57 22.7867 51.2774 22.7488 51.0043 22.6729C50.7313 22.5971 50.4874 22.4738 50.273 22.3031C50.0683 22.1324 49.9022 21.9095 49.7756 21.6345C49.6583 21.3595 49.6 21.0228 49.6 20.6245V18.6757C49.6 18.5524 49.5952 18.4007 49.5852 18.2205C49.5756 18.0403 49.5413 17.8696 49.483 17.7084C49.4243 17.5472 49.3317 17.4097 49.2048 17.2959C49.0878 17.1726 48.9122 17.111 48.6783 17.111H48.0783C47.9904 17.1299 47.9126 17.1773 47.8443 17.2532C47.7856 17.3196 47.7565 17.4002 47.7565 17.495V20.8948C47.7565 21.0655 47.7713 21.1935 47.8004 21.2789C47.8396 21.3548 47.8783 21.4164 47.9174 21.4638C47.9565 21.5017 47.9904 21.5397 48.02 21.5776C48.0587 21.6155 48.0783 21.6772 48.0783 21.7625H47.303C47.2443 21.7625 47.1909 21.7388 47.1422 21.6914C47.0935 21.644 47.0691 21.5918 47.0691 21.5349C47.0691 21.5918 47.0443 21.644 46.9956 21.6914C46.9569 21.7388 46.903 21.7625 46.8348 21.7625H46.0739C46.0739 21.6772 46.0887 21.6155 46.1178 21.5776C46.1569 21.5397 46.1961 21.5017 46.2352 21.4638C46.2739 21.4164 46.3083 21.3548 46.3374 21.2789C46.3765 21.203 46.3961 21.0845 46.3961 20.9233V17.4524C46.3665 17.1584 46.23 16.945 45.9865 16.8122C46.0935 16.7458 46.23 16.7127 46.3961 16.7127V12.6443C46.3961 12.4831 46.3765 12.3645 46.3374 12.2887C46.3083 12.2128 46.2739 12.1559 46.2352 12.118C46.1961 12.0705 46.1569 12.0279 46.1178 11.9899C46.0887 11.952 46.0739 11.8903 46.0739 11.805H46.8496C46.9078 11.805 46.9617 11.8287 47.0104 11.8762C47.0591 11.9141 47.0835 11.9663 47.0835 12.0326C47.0835 11.8809 47.1617 11.805 47.3178 11.805H48.693C49.0048 11.805 49.2974 11.8619 49.5709 11.9757C49.8439 12.0895 50.0826 12.246 50.2874 12.4451C50.4922 12.6348 50.6535 12.8624 50.7704 13.1279C50.8874 13.3935 50.9509 13.6732 50.9604 13.9672V14.8918C50.9604 15.2901 50.863 15.6553 50.6678 15.9872C50.473 16.3191 50.2096 16.5846 49.8778 16.7838C50.2096 16.9734 50.473 17.239 50.6678 17.5804C50.863 17.9123 50.9604 18.2774 50.9604 18.6757V20.5676C50.9604 20.7668 50.9604 20.9707 50.9604 21.1793C50.9704 21.3784 50.9948 21.5634 51.0335 21.7341C51.0726 21.8953 51.1313 22.0328 51.2091 22.1466C51.2874 22.2604 51.3943 22.3315 51.5309 22.36ZM50.1996 14.65C50.19 14.669 50.1852 14.6927 50.1852 14.7211V15.0483C50.1752 15.0863 50.1704 15.1242 50.1704 15.1621C50.1704 15.1906 50.1704 15.219 50.1704 15.2475C50.1704 15.2664 50.1656 15.2807 50.1556 15.2901C50.1556 15.2996 50.1556 15.3139 50.1556 15.3328V15.4182C50.1461 15.4371 50.1413 15.4609 50.1413 15.4893C50.1413 15.5082 50.1365 15.5272 50.1265 15.5462C50.1265 15.5652 50.1217 15.5794 50.1122 15.5889V15.6173L50.0974 15.6458C50.0974 15.6458 50.1069 15.641 50.1265 15.6315V15.6173L50.1413 15.6031C50.1509 15.5936 50.1556 15.5889 50.1556 15.5889C50.1556 15.5794 50.1609 15.5699 50.1704 15.5604C50.1804 15.5414 50.19 15.5225 50.1996 15.5035C50.2096 15.4751 50.2191 15.4514 50.2291 15.4324C50.2387 15.4134 50.2435 15.404 50.2435 15.404C50.2435 15.3945 50.2487 15.3802 50.2583 15.3613C50.2678 15.3423 50.273 15.3281 50.273 15.3186C50.273 15.2996 50.2778 15.2807 50.2874 15.2617C50.2974 15.2428 50.3022 15.2285 50.3022 15.219C50.3022 15.2096 50.3069 15.1953 50.3169 15.1764C50.3169 15.1574 50.3169 15.1432 50.3169 15.1337C50.3265 15.1147 50.3313 15.0957 50.3313 15.0768C50.3413 15.0388 50.3461 15.0009 50.3461 14.963C50.3556 14.925 50.3656 14.8871 50.3752 14.8492C50.3852 14.8207 50.39 14.7781 50.39 14.7211C50.39 14.7022 50.39 14.6832 50.39 14.6642C50.3996 14.6453 50.4048 14.6263 50.4048 14.6073V14.1095C50.4048 14.0526 50.3996 14.0099 50.39 13.9814V13.9245C50.39 13.9056 50.3852 13.8961 50.3752 13.8961C50.3752 13.8866 50.3752 13.8724 50.3752 13.8534C50.3752 13.806 50.3656 13.7349 50.3461 13.64C50.3361 13.6211 50.3313 13.6021 50.3313 13.5831C50.3313 13.5642 50.3265 13.5452 50.3169 13.5263C50.3169 13.5168 50.3117 13.512 50.3022 13.512C50.3022 13.5025 50.3022 13.4931 50.3022 13.4836C50.3022 13.4741 50.2974 13.4694 50.2874 13.4694C50.2874 13.4599 50.2874 13.4504 50.2874 13.4409C50.2778 13.4219 50.273 13.4077 50.273 13.3982C50.273 13.3887 50.2678 13.3745 50.2583 13.3555C50.2487 13.3366 50.2435 13.3223 50.2435 13.3129C50.2435 13.3034 50.2387 13.2892 50.2291 13.2702C50.2191 13.2607 50.2143 13.2512 50.2143 13.2418C50.2143 13.2322 50.2096 13.2228 50.1996 13.2133C50.1804 13.1754 50.1704 13.1564 50.1704 13.1564C50.1609 13.1469 50.1556 13.1422 50.1556 13.1422C50.1556 13.1327 50.1509 13.1232 50.1413 13.1137C50.1313 13.1042 50.1265 13.0948 50.1265 13.0853C50.1169 13.0758 50.1122 13.0663 50.1122 13.0568H50.0974C50.0974 13.0568 50.1022 13.0663 50.1122 13.0853V13.1137C50.1217 13.1232 50.1265 13.1422 50.1265 13.1706C50.1265 13.1801 50.1265 13.1896 50.1265 13.1991C50.1365 13.1991 50.1413 13.2086 50.1413 13.2275C50.1413 13.256 50.1461 13.2797 50.1556 13.2986V13.3698C50.1556 13.3887 50.1556 13.403 50.1556 13.4124C50.1656 13.4219 50.1704 13.4362 50.1704 13.4551C50.1704 13.5405 50.1752 13.6068 50.1852 13.6543V13.8819C50.1948 13.9293 50.1996 14.0051 50.1996 14.1095V14.65ZM47.1861 16.1152C47.1861 16.0678 47.1813 16.0156 47.1713 15.9587C47.1713 15.9018 47.1713 15.8449 47.1713 15.788V15.4751C47.1617 15.2664 47.1565 15.0673 47.1565 14.8776C47.1565 14.688 47.1517 14.5078 47.1422 14.3371C47.1322 14.2612 47.1274 14.1853 47.1274 14.1095C47.1274 14.0336 47.1226 13.9625 47.113 13.8961C47.113 13.8202 47.1078 13.7538 47.0983 13.6969C47.0983 13.64 47.0983 13.5879 47.0983 13.5405C47.0983 13.4931 47.0935 13.4504 47.0835 13.4124C47.0835 13.3745 47.0835 13.3413 47.0835 13.3129V13.2418C47.0739 13.2418 47.0691 13.2465 47.0691 13.256V13.3129C47.0691 13.3413 47.0639 13.3745 47.0543 13.4124C47.0543 13.4504 47.0543 13.4931 47.0543 13.5405C47.0543 13.5879 47.0496 13.64 47.0396 13.6969C47.0396 13.7538 47.0396 13.8202 47.0396 13.8961C47.03 13.9625 47.0252 14.0336 47.0252 14.1095C47.0252 14.1853 47.02 14.2612 47.0104 14.3371C47.0009 14.5078 46.9956 14.688 46.9956 14.8776C46.9956 15.0673 46.9909 15.2664 46.9813 15.4751V15.788C46.9813 15.8449 46.9761 15.9018 46.9665 15.9587C46.9665 16.0156 46.9665 16.0678 46.9665 16.1152V17.4381C46.9665 17.514 46.9713 17.5709 46.9813 17.6088V18.0783C46.9813 18.1826 46.9813 18.2869 46.9813 18.3912C46.9909 18.4861 46.9956 18.5809 46.9956 18.6757C46.9956 18.78 46.9956 18.8748 46.9956 18.9602C47.0056 19.0456 47.0104 19.1309 47.0104 19.2162C47.02 19.3016 47.0252 19.3822 47.0252 19.4581C47.0252 19.5245 47.03 19.5956 47.0396 19.6715C47.0396 19.7378 47.0396 19.7995 47.0396 19.8564C47.0496 19.9133 47.0543 19.9654 47.0543 20.0129C47.0543 20.0603 47.0543 20.1077 47.0543 20.1551C47.0639 20.193 47.0691 20.2215 47.0691 20.2405V20.3116C47.0691 20.3211 47.0739 20.3258 47.0835 20.3258V20.2405C47.0835 20.2215 47.0835 20.193 47.0835 20.1551C47.0935 20.1077 47.0983 20.0603 47.0983 20.0129C47.0983 19.9654 47.0983 19.9133 47.0983 19.8564C47.1078 19.7995 47.113 19.7378 47.113 19.6715C47.1226 19.5956 47.1274 19.5245 47.1274 19.4581C47.1274 19.3822 47.1322 19.3016 47.1422 19.2162C47.1422 19.1309 47.1422 19.0456 47.1422 18.9602C47.1517 18.8748 47.1565 18.78 47.1565 18.6757C47.1565 18.5809 47.1565 18.4861 47.1565 18.3912C47.1665 18.2869 47.1713 18.1826 47.1713 18.0783V17.7653C47.1713 17.6894 47.1761 17.6373 47.1861 17.6088V16.1152ZM49.6 14.0241C49.6 13.9009 49.5952 13.7491 49.5852 13.5689C49.5756 13.3887 49.5413 13.2181 49.483 13.0568C49.4243 12.8956 49.3317 12.7581 49.2048 12.6443C49.0878 12.521 48.9122 12.4594 48.6783 12.4594H48.1517C48.0443 12.4689 47.9517 12.5115 47.8735 12.5874C47.7956 12.6633 47.7565 12.7534 47.7565 12.8576V16.0583C47.7565 16.1626 47.7956 16.2527 47.8735 16.3286C47.9517 16.4044 48.0443 16.4424 48.1517 16.4424H48.6783C48.9122 16.4424 49.0878 16.3855 49.2048 16.2717C49.3317 16.1579 49.4243 16.0204 49.483 15.8591C49.5413 15.6884 49.5756 15.5178 49.5852 15.347C49.5952 15.1668 49.6 15.0151 49.6 14.8918V14.0241ZM50.58 21.8194C50.58 21.8194 50.5752 21.8147 50.5656 21.8052L50.5509 21.791C50.5413 21.772 50.5313 21.753 50.5217 21.7341C50.5217 21.7151 50.5117 21.6962 50.4922 21.6772C50.4826 21.6487 50.473 21.6203 50.463 21.5918C50.4535 21.5539 50.4435 21.5112 50.4339 21.4638C50.4143 21.369 50.4048 21.2789 50.4048 21.1935C50.3948 21.1461 50.39 21.0987 50.39 21.0513C50.39 20.9944 50.39 20.9327 50.39 20.8664V20.1124C50.39 20.0461 50.39 19.9797 50.39 19.9133C50.39 19.8469 50.3948 19.7758 50.4048 19.6999C50.4048 19.6335 50.4048 19.5671 50.4048 19.5007C50.4048 19.4344 50.3996 19.368 50.39 19.3016V19.1024C50.39 19.0076 50.3852 18.9412 50.3752 18.9033C50.3752 18.8369 50.3704 18.7753 50.3609 18.7184C50.3609 18.652 50.3556 18.5903 50.3461 18.5334C50.3265 18.4007 50.307 18.2869 50.2874 18.192C50.2778 18.1446 50.2678 18.1019 50.2583 18.064C50.2487 18.0166 50.2339 17.9692 50.2143 17.9218C50.1948 17.8743 50.1804 17.8364 50.1704 17.808C50.1609 17.7795 50.1461 17.7511 50.1265 17.7226C50.1069 17.6942 50.0926 17.6705 50.0826 17.6515C50.073 17.6325 50.063 17.6136 50.0535 17.5946C50.0439 17.5946 50.0339 17.5899 50.0243 17.5804C50.0143 17.5804 50.0096 17.5756 50.0096 17.5661L50.0243 17.5804C50.0243 17.5899 50.0291 17.5993 50.0387 17.6088C50.0387 17.6183 50.0387 17.6278 50.0387 17.6373C50.0487 17.6373 50.0535 17.6468 50.0535 17.6657C50.063 17.6752 50.0683 17.6847 50.0683 17.6942C50.0683 17.7037 50.073 17.7179 50.0826 17.7369C50.0926 17.7748 50.1069 17.8412 50.1265 17.936C50.1365 17.9834 50.1413 18.0308 50.1413 18.0783C50.1509 18.1257 50.1609 18.1731 50.1704 18.2205C50.1704 18.2679 50.1704 18.3201 50.1704 18.377C50.1804 18.4244 50.1852 18.4813 50.1852 18.5477V20.3116C50.1852 20.3495 50.1852 20.3827 50.1852 20.4111C50.1948 20.4396 50.1996 20.4728 50.1996 20.5107C50.1996 20.5771 50.1996 20.6435 50.1996 20.7099C50.2096 20.7668 50.2191 20.8237 50.2291 20.8806C50.2387 20.9375 50.2435 20.9944 50.2435 21.0513C50.2535 21.1082 50.263 21.1603 50.273 21.2078C50.2926 21.2647 50.3069 21.3168 50.3169 21.3642C50.3265 21.4021 50.3413 21.4448 50.3609 21.4922C50.38 21.5397 50.3948 21.5776 50.4048 21.6061C50.4143 21.6345 50.4291 21.663 50.4483 21.6914L50.4778 21.7198C50.4874 21.7294 50.4922 21.7388 50.4922 21.7483C50.4922 21.7483 50.4974 21.753 50.5069 21.7625L50.5656 21.8194H50.58Z" fill="#F4EDE8"/>
<path d="M54.8622 16.2453C55.295 16.2453 55.6459 16.5864 55.6459 17.0073C55.6459 17.4282 55.295 17.7694 54.8622 17.7694C54.4293 17.7694 54.0784 17.4282 54.0784 17.0073C54.0784 16.5864 54.4293 16.2453 54.8622 16.2453Z" fill="#999591"/>
<path d="M4.96368 16.2453C5.39653 16.2453 5.74743 16.5864 5.74743 17.0073C5.74743 17.4282 5.39653 17.7694 4.96368 17.7694C4.53083 17.7694 4.17993 17.4282 4.17993 17.0073C4.17993 16.5864 4.53083 16.2453 4.96368 16.2453Z" fill="#999591"/>
</g>
<defs>
<clipPath id="clip0">
<rect width="60" height="34" fill="white"/>
</clipPath>
</defs>
</svg>
